<?xml version="1.0" encoding="utf-8" standalone="no"?>
<!DOCTYPE svg PUBLIC "-//W3C//DTD SVG 1.1//EN"
  "http://www.w3.org/Graphics/SVG/1.1/DTD/svg11.dtd">
<svg xmlns:xlink="http://www.w3.org/1999/xlink" width="460.8pt" height="345.6pt" viewBox="0 0 460.8 345.6" xmlns="http://www.w3.org/2000/svg" version="1.1">
 <metadata>
  <rdf:RDF xmlns:dc="http://purl.org/dc/elements/1.1/" xmlns:cc="http://creativecommons.org/ns#" xmlns:rdf="http://www.w3.org/1999/02/22-rdf-syntax-ns#">
   <cc:Work>
    <dc:type rdf:resource="http://purl.org/dc/dcmitype/StillImage"/>
    <dc:date>2023-11-25T15:52:56.472134</dc:date>
    <dc:format>image/svg+xml</dc:format>
    <dc:creator>
     <cc:Agent>
      <dc:title>Matplotlib v3.7.0, https://matplotlib.org/</dc:title>
     </cc:Agent>
    </dc:creator>
   </cc:Work>
  </rdf:RDF>
 </metadata>
 <defs>
  <style type="text/css">*{stroke-linejoin: round; stroke-linecap: butt}</style>
 </defs>
 <g id="figure_1">
  <g id="patch_1">
   <path d="M 0 345.6 
L 460.8 345.6 
L 460.8 0 
L 0 0 
z
" style="fill: #ffffff"/>
  </g>
  <g id="axes_1">
   <g id="patch_2">
    <path d="M 57.6 307.584 
L 414.72 307.584 
L 414.72 41.472 
L 57.6 41.472 
z
" style="fill: #ffffff"/>
   </g>
   <g id="PathCollection_1">
    <defs>
     <path id="m2354c1631a" d="M 0 3.061862 
C 0.812015 3.061862 1.590882 2.739245 2.165064 2.165064 
C 2.739245 1.590882 3.061862 0.812015 3.061862 0 
C 3.061862 -0.812015 2.739245 -1.590882 2.165064 -2.165064 
C 1.590882 -2.739245 0.812015 -3.061862 0 -3.061862 
C -0.812015 -3.061862 -1.590882 -2.739245 -2.165064 -2.165064 
C -2.739245 -1.590882 -3.061862 -0.812015 -3.061862 0 
C -3.061862 0.812015 -2.739245 1.590882 -2.165064 2.165064 
C -1.590882 2.739245 -0.812015 3.061862 0 3.061862 
z
" style="stroke: #0000ff"/>
    </defs>
    <g clip-path="url(#pde149e5ce6)">
     <use xlink:href="#m2354c1631a" x="111.168" y="133.587692" style="fill: #0000ff; stroke: #0000ff"/>
    </g>
   </g>
   <g id="PathCollection_2">
    <defs>
     <path id="meffc613ff7" d="M 0 3.061862 
C 0.812015 3.061862 1.590882 2.739245 2.165064 2.165064 
C 2.739245 1.590882 3.061862 0.812015 3.061862 0 
C 3.061862 -0.812015 2.739245 -1.590882 2.165064 -2.165064 
C 1.590882 -2.739245 0.812015 -3.061862 0 -3.061862 
C -0.812015 -3.061862 -1.590882 -2.739245 -2.165064 -2.165064 
C -2.739245 -1.590882 -3.061862 -0.812015 -3.061862 0 
C -3.061862 0.812015 -2.739245 1.590882 -2.165064 2.165064 
C -1.590882 2.739245 -0.812015 3.061862 0 3.061862 
z
" style="stroke: #000000"/>
    </defs>
    <g clip-path="url(#pde149e5ce6)">
     <use xlink:href="#meffc613ff7" x="313.536" y="272.784738" style="stroke: #000000"/>
    </g>
   </g>
   <g id="matplotlib.axis_1">
    <g id="xtick_1">
     <g id="line2d_1">
      <path d="M 57.6 307.584 
L 57.6 41.472 
" clip-path="url(#pde149e5ce6)" style="fill: none; stroke: #808080; stroke-width: 0.5; stroke-linecap: square"/>
     </g>
     <g id="line2d_2">
      <defs>
       <path id="m9ebd207f74" d="M 0 0 
L 0 3.5 
" style="stroke: #000000; stroke-width: 0.8"/>
      </defs>
      <g>
       <use xlink:href="#m9ebd207f74" x="57.6" y="307.584" style="stroke: #000000; stroke-width: 0.8"/>
      </g>
     </g>
     <g id="text_1">
      <!-- 0 -->
      <g transform="translate(54.41875 322.182437) scale(0.1 -0.1)">
       <defs>
        <path id="DejaVuSans-30" d="M 2034 4250 
Q 1547 4250 1301 3770 
Q 1056 3291 1056 2328 
Q 1056 1369 1301 889 
Q 1547 409 2034 409 
Q 2525 409 2770 889 
Q 3016 1369 3016 2328 
Q 3016 3291 2770 3770 
Q 2525 4250 2034 4250 
z
M 2034 4750 
Q 2819 4750 3233 4129 
Q 3647 3509 3647 2328 
Q 3647 1150 3233 529 
Q 2819 -91 2034 -91 
Q 1250 -91 836 529 
Q 422 1150 422 2328 
Q 422 3509 836 4129 
Q 1250 4750 2034 4750 
z
" transform="scale(0.015625)"/>
       </defs>
       <use xlink:href="#DejaVuSans-30"/>
      </g>
     </g>
    </g>
    <g id="xtick_2">
     <g id="line2d_3">
      <path d="M 117.12 307.584 
L 117.12 41.472 
" clip-path="url(#pde149e5ce6)" style="fill: none; stroke: #808080; stroke-width: 0.5; stroke-linecap: square"/>
     </g>
     <g id="line2d_4">
      <g>
       <use xlink:href="#m9ebd207f74" x="117.12" y="307.584" style="stroke: #000000; stroke-width: 0.8"/>
      </g>
     </g>
     <g id="text_2">
      <!-- 10 -->
      <g transform="translate(110.7575 322.182437) scale(0.1 -0.1)">
       <defs>
        <path id="DejaVuSans-31" d="M 794 531 
L 1825 531 
L 1825 4091 
L 703 3866 
L 703 4441 
L 1819 4666 
L 2450 4666 
L 2450 531 
L 3481 531 
L 3481 0 
L 794 0 
L 794 531 
z
" transform="scale(0.015625)"/>
       </defs>
       <use xlink:href="#DejaVuSans-31"/>
       <use xlink:href="#DejaVuSans-30" x="63.623047"/>
      </g>
     </g>
    </g>
    <g id="xtick_3">
     <g id="line2d_5">
      <path d="M 176.64 307.584 
L 176.64 41.472 
" clip-path="url(#pde149e5ce6)" style="fill: none; stroke: #808080; stroke-width: 0.5; stroke-linecap: square"/>
     </g>
     <g id="line2d_6">
      <g>
       <use xlink:href="#m9ebd207f74" x="176.64" y="307.584" style="stroke: #000000; stroke-width: 0.8"/>
      </g>
     </g>
     <g id="text_3">
      <!-- 20 -->
      <g transform="translate(170.2775 322.182437) scale(0.1 -0.1)">
       <defs>
        <path id="DejaVuSans-32" d="M 1228 531 
L 3431 531 
L 3431 0 
L 469 0 
L 469 531 
Q 828 903 1448 1529 
Q 2069 2156 2228 2338 
Q 2531 2678 2651 2914 
Q 2772 3150 2772 3378 
Q 2772 3750 2511 3984 
Q 2250 4219 1831 4219 
Q 1534 4219 1204 4116 
Q 875 4013 500 3803 
L 500 4441 
Q 881 4594 1212 4672 
Q 1544 4750 1819 4750 
Q 2544 4750 2975 4387 
Q 3406 4025 3406 3419 
Q 3406 3131 3298 2873 
Q 3191 2616 2906 2266 
Q 2828 2175 2409 1742 
Q 1991 1309 1228 531 
z
" transform="scale(0.015625)"/>
       </defs>
       <use xlink:href="#DejaVuSans-32"/>
       <use xlink:href="#DejaVuSans-30" x="63.623047"/>
      </g>
     </g>
    </g>
    <g id="xtick_4">
     <g id="line2d_7">
      <path d="M 236.16 307.584 
L 236.16 41.472 
" clip-path="url(#pde149e5ce6)" style="fill: none; stroke: #808080; stroke-width: 0.5; stroke-linecap: square"/>
     </g>
     <g id="line2d_8">
      <g>
       <use xlink:href="#m9ebd207f74" x="236.16" y="307.584" style="stroke: #000000; stroke-width: 0.8"/>
      </g>
     </g>
     <g id="text_4">
      <!-- 30 -->
      <g transform="translate(229.7975 322.182437) scale(0.1 -0.1)">
       <defs>
        <path id="DejaVuSans-33" d="M 2597 2516 
Q 3050 2419 3304 2112 
Q 3559 1806 3559 1356 
Q 3559 666 3084 287 
Q 2609 -91 1734 -91 
Q 1441 -91 1130 -33 
Q 819 25 488 141 
L 488 750 
Q 750 597 1062 519 
Q 1375 441 1716 441 
Q 2309 441 2620 675 
Q 2931 909 2931 1356 
Q 2931 1769 2642 2001 
Q 2353 2234 1838 2234 
L 1294 2234 
L 1294 2753 
L 1863 2753 
Q 2328 2753 2575 2939 
Q 2822 3125 2822 3475 
Q 2822 3834 2567 4026 
Q 2313 4219 1838 4219 
Q 1578 4219 1281 4162 
Q 984 4106 628 3988 
L 628 4550 
Q 988 4650 1302 4700 
Q 1616 4750 1894 4750 
Q 2613 4750 3031 4423 
Q 3450 4097 3450 3541 
Q 3450 3153 3228 2886 
Q 3006 2619 2597 2516 
z
" transform="scale(0.015625)"/>
       </defs>
       <use xlink:href="#DejaVuSans-33"/>
       <use xlink:href="#DejaVuSans-30" x="63.623047"/>
      </g>
     </g>
    </g>
    <g id="xtick_5">
     <g id="line2d_9">
      <path d="M 295.68 307.584 
L 295.68 41.472 
" clip-path="url(#pde149e5ce6)" style="fill: none; stroke: #808080; stroke-width: 0.5; stroke-linecap: square"/>
     </g>
     <g id="line2d_10">
      <g>
       <use xlink:href="#m9ebd207f74" x="295.68" y="307.584" style="stroke: #000000; stroke-width: 0.8"/>
      </g>
     </g>
     <g id="text_5">
      <!-- 40 -->
      <g transform="translate(289.3175 322.182437) scale(0.1 -0.1)">
       <defs>
        <path id="DejaVuSans-34" d="M 2419 4116 
L 825 1625 
L 2419 1625 
L 2419 4116 
z
M 2253 4666 
L 3047 4666 
L 3047 1625 
L 3713 1625 
L 3713 1100 
L 3047 1100 
L 3047 0 
L 2419 0 
L 2419 1100 
L 313 1100 
L 313 1709 
L 2253 4666 
z
" transform="scale(0.015625)"/>
       </defs>
       <use xlink:href="#DejaVuSans-34"/>
       <use xlink:href="#DejaVuSans-30" x="63.623047"/>
      </g>
     </g>
    </g>
    <g id="xtick_6">
     <g id="line2d_11">
      <path d="M 355.2 307.584 
L 355.2 41.472 
" clip-path="url(#pde149e5ce6)" style="fill: none; stroke: #808080; stroke-width: 0.5; stroke-linecap: square"/>
     </g>
     <g id="line2d_12">
      <g>
       <use xlink:href="#m9ebd207f74" x="355.2" y="307.584" style="stroke: #000000; stroke-width: 0.8"/>
      </g>
     </g>
     <g id="text_6">
      <!-- 50 -->
      <g transform="translate(348.8375 322.182437) scale(0.1 -0.1)">
       <defs>
        <path id="DejaVuSans-35" d="M 691 4666 
L 3169 4666 
L 3169 4134 
L 1269 4134 
L 1269 2991 
Q 1406 3038 1543 3061 
Q 1681 3084 1819 3084 
Q 2600 3084 3056 2656 
Q 3513 2228 3513 1497 
Q 3513 744 3044 326 
Q 2575 -91 1722 -91 
Q 1428 -91 1123 -41 
Q 819 9 494 109 
L 494 744 
Q 775 591 1075 516 
Q 1375 441 1709 441 
Q 2250 441 2565 725 
Q 2881 1009 2881 1497 
Q 2881 1984 2565 2268 
Q 2250 2553 1709 2553 
Q 1456 2553 1204 2497 
Q 953 2441 691 2322 
L 691 4666 
z
" transform="scale(0.015625)"/>
       </defs>
       <use xlink:href="#DejaVuSans-35"/>
       <use xlink:href="#DejaVuSans-30" x="63.623047"/>
      </g>
     </g>
    </g>
    <g id="xtick_7">
     <g id="line2d_13">
      <path d="M 414.72 307.584 
L 414.72 41.472 
" clip-path="url(#pde149e5ce6)" style="fill: none; stroke: #808080; stroke-width: 0.5; stroke-linecap: square"/>
     </g>
     <g id="line2d_14">
      <g>
       <use xlink:href="#m9ebd207f74" x="414.72" y="307.584" style="stroke: #000000; stroke-width: 0.8"/>
      </g>
     </g>
     <g id="text_7">
      <!-- 60 -->
      <g transform="translate(408.3575 322.182437) scale(0.1 -0.1)">
       <defs>
        <path id="DejaVuSans-36" d="M 2113 2584 
Q 1688 2584 1439 2293 
Q 1191 2003 1191 1497 
Q 1191 994 1439 701 
Q 1688 409 2113 409 
Q 2538 409 2786 701 
Q 3034 994 3034 1497 
Q 3034 2003 2786 2293 
Q 2538 2584 2113 2584 
z
M 3366 4563 
L 3366 3988 
Q 3128 4100 2886 4159 
Q 2644 4219 2406 4219 
Q 1781 4219 1451 3797 
Q 1122 3375 1075 2522 
Q 1259 2794 1537 2939 
Q 1816 3084 2150 3084 
Q 2853 3084 3261 2657 
Q 3669 2231 3669 1497 
Q 3669 778 3244 343 
Q 2819 -91 2113 -91 
Q 1303 -91 875 529 
Q 447 1150 447 2328 
Q 447 3434 972 4092 
Q 1497 4750 2381 4750 
Q 2619 4750 2861 4703 
Q 3103 4656 3366 4563 
z
" transform="scale(0.015625)"/>
       </defs>
       <use xlink:href="#DejaVuSans-36"/>
       <use xlink:href="#DejaVuSans-30" x="63.623047"/>
      </g>
     </g>
    </g>
    <g id="xtick_8">
     <g id="line2d_15">
      <path d="M 69.504 307.584 
L 69.504 41.472 
" clip-path="url(#pde149e5ce6)" style="fill: none; stroke-dasharray: 0.8,1.32; stroke-dashoffset: 0; stroke: #696969; stroke-width: 0.8"/>
     </g>
     <g id="line2d_16">
      <defs>
       <path id="m3fdf1bf131" d="M 0 0 
L 0 2 
" style="stroke: #000000; stroke-width: 0.6"/>
      </defs>
      <g>
       <use xlink:href="#m3fdf1bf131" x="69.504" y="307.584" style="stroke: #000000; stroke-width: 0.6"/>
      </g>
     </g>
    </g>
    <g id="xtick_9">
     <g id="line2d_17">
      <path d="M 81.408 307.584 
L 81.408 41.472 
" clip-path="url(#pde149e5ce6)" style="fill: none; stroke-dasharray: 0.8,1.32; stroke-dashoffset: 0; stroke: #696969; stroke-width: 0.8"/>
     </g>
     <g id="line2d_18">
      <g>
       <use xlink:href="#m3fdf1bf131" x="81.408" y="307.584" style="stroke: #000000; stroke-width: 0.6"/>
      </g>
     </g>
    </g>
    <g id="xtick_10">
     <g id="line2d_19">
      <path d="M 93.312 307.584 
L 93.312 41.472 
" clip-path="url(#pde149e5ce6)" style="fill: none; stroke-dasharray: 0.8,1.32; stroke-dashoffset: 0; stroke: #696969; stroke-width: 0.8"/>
     </g>
     <g id="line2d_20">
      <g>
       <use xlink:href="#m3fdf1bf131" x="93.312" y="307.584" style="stroke: #000000; stroke-width: 0.6"/>
      </g>
     </g>
    </g>
    <g id="xtick_11">
     <g id="line2d_21">
      <path d="M 105.216 307.584 
L 105.216 41.472 
" clip-path="url(#pde149e5ce6)" style="fill: none; stroke-dasharray: 0.8,1.32; stroke-dashoffset: 0; stroke: #696969; stroke-width: 0.8"/>
     </g>
     <g id="line2d_22">
      <g>
       <use xlink:href="#m3fdf1bf131" x="105.216" y="307.584" style="stroke: #000000; stroke-width: 0.6"/>
      </g>
     </g>
    </g>
    <g id="xtick_12">
     <g id="line2d_23">
      <path d="M 129.024 307.584 
L 129.024 41.472 
" clip-path="url(#pde149e5ce6)" style="fill: none; stroke-dasharray: 0.8,1.32; stroke-dashoffset: 0; stroke: #696969; stroke-width: 0.8"/>
     </g>
     <g id="line2d_24">
      <g>
       <use xlink:href="#m3fdf1bf131" x="129.024" y="307.584" style="stroke: #000000; stroke-width: 0.6"/>
      </g>
     </g>
    </g>
    <g id="xtick_13">
     <g id="line2d_25">
      <path d="M 140.928 307.584 
L 140.928 41.472 
" clip-path="url(#pde149e5ce6)" style="fill: none; stroke-dasharray: 0.8,1.32; stroke-dashoffset: 0; stroke: #696969; stroke-width: 0.8"/>
     </g>
     <g id="line2d_26">
      <g>
       <use xlink:href="#m3fdf1bf131" x="140.928" y="307.584" style="stroke: #000000; stroke-width: 0.6"/>
      </g>
     </g>
    </g>
    <g id="xtick_14">
     <g id="line2d_27">
      <path d="M 152.832 307.584 
L 152.832 41.472 
" clip-path="url(#pde149e5ce6)" style="fill: none; stroke-dasharray: 0.8,1.32; stroke-dashoffset: 0; stroke: #696969; stroke-width: 0.8"/>
     </g>
     <g id="line2d_28">
      <g>
       <use xlink:href="#m3fdf1bf131" x="152.832" y="307.584" style="stroke: #000000; stroke-width: 0.6"/>
      </g>
     </g>
    </g>
    <g id="xtick_15">
     <g id="line2d_29">
      <path d="M 164.736 307.584 
L 164.736 41.472 
" clip-path="url(#pde149e5ce6)" style="fill: none; stroke-dasharray: 0.8,1.32; stroke-dashoffset: 0; stroke: #696969; stroke-width: 0.8"/>
     </g>
     <g id="line2d_30">
      <g>
       <use xlink:href="#m3fdf1bf131" x="164.736" y="307.584" style="stroke: #000000; stroke-width: 0.6"/>
      </g>
     </g>
    </g>
    <g id="xtick_16">
     <g id="line2d_31">
      <path d="M 188.544 307.584 
L 188.544 41.472 
" clip-path="url(#pde149e5ce6)" style="fill: none; stroke-dasharray: 0.8,1.32; stroke-dashoffset: 0; stroke: #696969; stroke-width: 0.8"/>
     </g>
     <g id="line2d_32">
      <g>
       <use xlink:href="#m3fdf1bf131" x="188.544" y="307.584" style="stroke: #000000; stroke-width: 0.6"/>
      </g>
     </g>
    </g>
    <g id="xtick_17">
     <g id="line2d_33">
      <path d="M 200.448 307.584 
L 200.448 41.472 
" clip-path="url(#pde149e5ce6)" style="fill: none; stroke-dasharray: 0.8,1.32; stroke-dashoffset: 0; stroke: #696969; stroke-width: 0.8"/>
     </g>
     <g id="line2d_34">
      <g>
       <use xlink:href="#m3fdf1bf131" x="200.448" y="307.584" style="stroke: #000000; stroke-width: 0.6"/>
      </g>
     </g>
    </g>
    <g id="xtick_18">
     <g id="line2d_35">
      <path d="M 212.352 307.584 
L 212.352 41.472 
" clip-path="url(#pde149e5ce6)" style="fill: none; stroke-dasharray: 0.8,1.32; stroke-dashoffset: 0; stroke: #696969; stroke-width: 0.8"/>
     </g>
     <g id="line2d_36">
      <g>
       <use xlink:href="#m3fdf1bf131" x="212.352" y="307.584" style="stroke: #000000; stroke-width: 0.6"/>
      </g>
     </g>
    </g>
    <g id="xtick_19">
     <g id="line2d_37">
      <path d="M 224.256 307.584 
L 224.256 41.472 
" clip-path="url(#pde149e5ce6)" style="fill: none; stroke-dasharray: 0.8,1.32; stroke-dashoffset: 0; stroke: #696969; stroke-width: 0.8"/>
     </g>
     <g id="line2d_38">
      <g>
       <use xlink:href="#m3fdf1bf131" x="224.256" y="307.584" style="stroke: #000000; stroke-width: 0.6"/>
      </g>
     </g>
    </g>
    <g id="xtick_20">
     <g id="line2d_39">
      <path d="M 248.064 307.584 
L 248.064 41.472 
" clip-path="url(#pde149e5ce6)" style="fill: none; stroke-dasharray: 0.8,1.32; stroke-dashoffset: 0; stroke: #696969; stroke-width: 0.8"/>
     </g>
     <g id="line2d_40">
      <g>
       <use xlink:href="#m3fdf1bf131" x="248.064" y="307.584" style="stroke: #000000; stroke-width: 0.6"/>
      </g>
     </g>
    </g>
    <g id="xtick_21">
     <g id="line2d_41">
      <path d="M 259.968 307.584 
L 259.968 41.472 
" clip-path="url(#pde149e5ce6)" style="fill: none; stroke-dasharray: 0.8,1.32; stroke-dashoffset: 0; stroke: #696969; stroke-width: 0.8"/>
     </g>
     <g id="line2d_42">
      <g>
       <use xlink:href="#m3fdf1bf131" x="259.968" y="307.584" style="stroke: #000000; stroke-width: 0.6"/>
      </g>
     </g>
    </g>
    <g id="xtick_22">
     <g id="line2d_43">
      <path d="M 271.872 307.584 
L 271.872 41.472 
" clip-path="url(#pde149e5ce6)" style="fill: none; stroke-dasharray: 0.8,1.32; stroke-dashoffset: 0; stroke: #696969; stroke-width: 0.8"/>
     </g>
     <g id="line2d_44">
      <g>
       <use xlink:href="#m3fdf1bf131" x="271.872" y="307.584" style="stroke: #000000; stroke-width: 0.6"/>
      </g>
     </g>
    </g>
    <g id="xtick_23">
     <g id="line2d_45">
      <path d="M 283.776 307.584 
L 283.776 41.472 
" clip-path="url(#pde149e5ce6)" style="fill: none; stroke-dasharray: 0.8,1.32; stroke-dashoffset: 0; stroke: #696969; stroke-width: 0.8"/>
     </g>
     <g id="line2d_46">
      <g>
       <use xlink:href="#m3fdf1bf131" x="283.776" y="307.584" style="stroke: #000000; stroke-width: 0.6"/>
      </g>
     </g>
    </g>
    <g id="xtick_24">
     <g id="line2d_47">
      <path d="M 307.584 307.584 
L 307.584 41.472 
" clip-path="url(#pde149e5ce6)" style="fill: none; stroke-dasharray: 0.8,1.32; stroke-dashoffset: 0; stroke: #696969; stroke-width: 0.8"/>
     </g>
     <g id="line2d_48">
      <g>
       <use xlink:href="#m3fdf1bf131" x="307.584" y="307.584" style="stroke: #000000; stroke-width: 0.6"/>
      </g>
     </g>
    </g>
    <g id="xtick_25">
     <g id="line2d_49">
      <path d="M 319.488 307.584 
L 319.488 41.472 
" clip-path="url(#pde149e5ce6)" style="fill: none; stroke-dasharray: 0.8,1.32; stroke-dashoffset: 0; stroke: #696969; stroke-width: 0.8"/>
     </g>
     <g id="line2d_50">
      <g>
       <use xlink:href="#m3fdf1bf131" x="319.488" y="307.584" style="stroke: #000000; stroke-width: 0.6"/>
      </g>
     </g>
    </g>
    <g id="xtick_26">
     <g id="line2d_51">
      <path d="M 331.392 307.584 
L 331.392 41.472 
" clip-path="url(#pde149e5ce6)" style="fill: none; stroke-dasharray: 0.8,1.32; stroke-dashoffset: 0; stroke: #696969; stroke-width: 0.8"/>
     </g>
     <g id="line2d_52">
      <g>
       <use xlink:href="#m3fdf1bf131" x="331.392" y="307.584" style="stroke: #000000; stroke-width: 0.6"/>
      </g>
     </g>
    </g>
    <g id="xtick_27">
     <g id="line2d_53">
      <path d="M 343.296 307.584 
L 343.296 41.472 
" clip-path="url(#pde149e5ce6)" style="fill: none; stroke-dasharray: 0.8,1.32; stroke-dashoffset: 0; stroke: #696969; stroke-width: 0.8"/>
     </g>
     <g id="line2d_54">
      <g>
       <use xlink:href="#m3fdf1bf131" x="343.296" y="307.584" style="stroke: #000000; stroke-width: 0.6"/>
      </g>
     </g>
    </g>
    <g id="xtick_28">
     <g id="line2d_55">
      <path d="M 367.104 307.584 
L 367.104 41.472 
" clip-path="url(#pde149e5ce6)" style="fill: none; stroke-dasharray: 0.8,1.32; stroke-dashoffset: 0; stroke: #696969; stroke-width: 0.8"/>
     </g>
     <g id="line2d_56">
      <g>
       <use xlink:href="#m3fdf1bf131" x="367.104" y="307.584" style="stroke: #000000; stroke-width: 0.6"/>
      </g>
     </g>
    </g>
    <g id="xtick_29">
     <g id="line2d_57">
      <path d="M 379.008 307.584 
L 379.008 41.472 
" clip-path="url(#pde149e5ce6)" style="fill: none; stroke-dasharray: 0.8,1.32; stroke-dashoffset: 0; stroke: #696969; stroke-width: 0.8"/>
     </g>
     <g id="line2d_58">
      <g>
       <use xlink:href="#m3fdf1bf131" x="379.008" y="307.584" style="stroke: #000000; stroke-width: 0.6"/>
      </g>
     </g>
    </g>
    <g id="xtick_30">
     <g id="line2d_59">
      <path d="M 390.912 307.584 
L 390.912 41.472 
" clip-path="url(#pde149e5ce6)" style="fill: none; stroke-dasharray: 0.8,1.32; stroke-dashoffset: 0; stroke: #696969; stroke-width: 0.8"/>
     </g>
     <g id="line2d_60">
      <g>
       <use xlink:href="#m3fdf1bf131" x="390.912" y="307.584" style="stroke: #000000; stroke-width: 0.6"/>
      </g>
     </g>
    </g>
    <g id="xtick_31">
     <g id="line2d_61">
      <path d="M 402.816 307.584 
L 402.816 41.472 
" clip-path="url(#pde149e5ce6)" style="fill: none; stroke-dasharray: 0.8,1.32; stroke-dashoffset: 0; stroke: #696969; stroke-width: 0.8"/>
     </g>
     <g id="line2d_62">
      <g>
       <use xlink:href="#m3fdf1bf131" x="402.816" y="307.584" style="stroke: #000000; stroke-width: 0.6"/>
      </g>
     </g>
    </g>
    <g id="text_8">
     <!-- Время [с] -->
     <g transform="translate(206.519062 337.38025) scale(0.12 -0.12)">
      <defs>
       <path id="DejaVuSans-412" d="M 1259 2228 
L 1259 519 
L 2272 519 
Q 2781 519 3026 730 
Q 3272 941 3272 1375 
Q 3272 1813 3026 2020 
Q 2781 2228 2272 2228 
L 1259 2228 
z
M 1259 4147 
L 1259 2741 
L 2194 2741 
Q 2656 2741 2882 2914 
Q 3109 3088 3109 3444 
Q 3109 3797 2882 3972 
Q 2656 4147 2194 4147 
L 1259 4147 
z
M 628 4666 
L 2241 4666 
Q 2963 4666 3353 4366 
Q 3744 4066 3744 3513 
Q 3744 3084 3544 2831 
Q 3344 2578 2956 2516 
Q 3422 2416 3680 2098 
Q 3938 1781 3938 1306 
Q 3938 681 3513 340 
Q 3088 0 2303 0 
L 628 0 
L 628 4666 
z
" transform="scale(0.015625)"/>
       <path id="DejaVuSans-440" d="M 1159 525 
L 1159 -1331 
L 581 -1331 
L 581 3500 
L 1159 3500 
L 1159 2969 
Q 1341 3281 1617 3432 
Q 1894 3584 2278 3584 
Q 2916 3584 3314 3078 
Q 3713 2572 3713 1747 
Q 3713 922 3314 415 
Q 2916 -91 2278 -91 
Q 1894 -91 1617 61 
Q 1341 213 1159 525 
z
M 3116 1747 
Q 3116 2381 2855 2742 
Q 2594 3103 2138 3103 
Q 1681 3103 1420 2742 
Q 1159 2381 1159 1747 
Q 1159 1113 1420 752 
Q 1681 391 2138 391 
Q 2594 391 2855 752 
Q 3116 1113 3116 1747 
z
" transform="scale(0.015625)"/>
       <path id="DejaVuSans-435" d="M 3597 1894 
L 3597 1613 
L 953 1613 
Q 991 1019 1311 708 
Q 1631 397 2203 397 
Q 2534 397 2845 478 
Q 3156 559 3463 722 
L 3463 178 
Q 3153 47 2828 -22 
Q 2503 -91 2169 -91 
Q 1331 -91 842 396 
Q 353 884 353 1716 
Q 353 2575 817 3079 
Q 1281 3584 2069 3584 
Q 2775 3584 3186 3129 
Q 3597 2675 3597 1894 
z
M 3022 2063 
Q 3016 2534 2758 2815 
Q 2500 3097 2075 3097 
Q 1594 3097 1305 2825 
Q 1016 2553 972 2059 
L 3022 2063 
z
" transform="scale(0.015625)"/>
       <path id="DejaVuSans-43c" d="M 581 3500 
L 1422 3500 
L 2416 1156 
L 3413 3500 
L 4247 3500 
L 4247 0 
L 3669 0 
L 3669 2950 
L 2703 672 
L 2128 672 
L 1159 2950 
L 1159 0 
L 581 0 
L 581 3500 
z
" transform="scale(0.015625)"/>
       <path id="DejaVuSans-44f" d="M 1181 2491 
Q 1181 2231 1381 2084 
Q 1581 1938 1953 1938 
L 2728 1938 
L 2728 3041 
L 1953 3041 
Q 1581 3041 1381 2897 
Q 1181 2753 1181 2491 
z
M 363 0 
L 1431 1534 
Q 1069 1616 828 1830 
Q 588 2044 588 2491 
Q 588 2997 923 3248 
Q 1259 3500 1938 3500 
L 3306 3500 
L 3306 0 
L 2728 0 
L 2728 1478 
L 2013 1478 
L 981 0 
L 363 0 
z
" transform="scale(0.015625)"/>
       <path id="DejaVuSans-20" transform="scale(0.015625)"/>
       <path id="DejaVuSans-5b" d="M 550 4863 
L 1875 4863 
L 1875 4416 
L 1125 4416 
L 1125 -397 
L 1875 -397 
L 1875 -844 
L 550 -844 
L 550 4863 
z
" transform="scale(0.015625)"/>
       <path id="DejaVuSans-441" d="M 3122 3366 
L 3122 2828 
Q 2878 2963 2633 3030 
Q 2388 3097 2138 3097 
Q 1578 3097 1268 2742 
Q 959 2388 959 1747 
Q 959 1106 1268 751 
Q 1578 397 2138 397 
Q 2388 397 2633 464 
Q 2878 531 3122 666 
L 3122 134 
Q 2881 22 2623 -34 
Q 2366 -91 2075 -91 
Q 1284 -91 818 406 
Q 353 903 353 1747 
Q 353 2603 823 3093 
Q 1294 3584 2113 3584 
Q 2378 3584 2631 3529 
Q 2884 3475 3122 3366 
z
" transform="scale(0.015625)"/>
       <path id="DejaVuSans-5d" d="M 1947 4863 
L 1947 -844 
L 622 -844 
L 622 -397 
L 1369 -397 
L 1369 4416 
L 622 4416 
L 622 4863 
L 1947 4863 
z
" transform="scale(0.015625)"/>
      </defs>
      <use xlink:href="#DejaVuSans-412"/>
      <use xlink:href="#DejaVuSans-440" x="68.603516"/>
      <use xlink:href="#DejaVuSans-435" x="132.080078"/>
      <use xlink:href="#DejaVuSans-43c" x="193.603516"/>
      <use xlink:href="#DejaVuSans-44f" x="269.042969"/>
      <use xlink:href="#DejaVuSans-20" x="329.199219"/>
      <use xlink:href="#DejaVuSans-5b" x="360.986328"/>
      <use xlink:href="#DejaVuSans-441" x="400"/>
      <use xlink:href="#DejaVuSans-5d" x="454.980469"/>
     </g>
    </g>
   </g>
   <g id="matplotlib.axis_2">
    <g id="ytick_1">
     <g id="line2d_63">
      <path d="M 57.6 307.584 
L 414.72 307.584 
" clip-path="url(#pde149e5ce6)" style="fill: none; stroke: #808080; stroke-width: 0.5; stroke-linecap: square"/>
     </g>
     <g id="line2d_64">
      <defs>
       <path id="mf2465548fd" d="M 0 0 
L -3.5 0 
" style="stroke: #000000; stroke-width: 0.8"/>
      </defs>
      <g>
       <use xlink:href="#mf2465548fd" x="57.6" y="307.584" style="stroke: #000000; stroke-width: 0.8"/>
      </g>
     </g>
     <g id="text_9">
      <!-- 40 -->
      <g transform="translate(37.875 311.383219) scale(0.1 -0.1)">
       <use xlink:href="#DejaVuSans-34"/>
       <use xlink:href="#DejaVuSans-30" x="63.623047"/>
      </g>
     </g>
    </g>
    <g id="ytick_2">
     <g id="line2d_65">
      <path d="M 57.6 266.643692 
L 414.72 266.643692 
" clip-path="url(#pde149e5ce6)" style="fill: none; stroke: #808080; stroke-width: 0.5; stroke-linecap: square"/>
     </g>
     <g id="line2d_66">
      <g>
       <use xlink:href="#mf2465548fd" x="57.6" y="266.643692" style="stroke: #000000; stroke-width: 0.8"/>
      </g>
     </g>
     <g id="text_10">
      <!-- 60 -->
      <g transform="translate(37.875 270.442911) scale(0.1 -0.1)">
       <use xlink:href="#DejaVuSans-36"/>
       <use xlink:href="#DejaVuSans-30" x="63.623047"/>
      </g>
     </g>
    </g>
    <g id="ytick_3">
     <g id="line2d_67">
      <path d="M 57.6 225.703385 
L 414.72 225.703385 
" clip-path="url(#pde149e5ce6)" style="fill: none; stroke: #808080; stroke-width: 0.5; stroke-linecap: square"/>
     </g>
     <g id="line2d_68">
      <g>
       <use xlink:href="#mf2465548fd" x="57.6" y="225.703385" style="stroke: #000000; stroke-width: 0.8"/>
      </g>
     </g>
     <g id="text_11">
      <!-- 80 -->
      <g transform="translate(37.875 229.502603) scale(0.1 -0.1)">
       <defs>
        <path id="DejaVuSans-38" d="M 2034 2216 
Q 1584 2216 1326 1975 
Q 1069 1734 1069 1313 
Q 1069 891 1326 650 
Q 1584 409 2034 409 
Q 2484 409 2743 651 
Q 3003 894 3003 1313 
Q 3003 1734 2745 1975 
Q 2488 2216 2034 2216 
z
M 1403 2484 
Q 997 2584 770 2862 
Q 544 3141 544 3541 
Q 544 4100 942 4425 
Q 1341 4750 2034 4750 
Q 2731 4750 3128 4425 
Q 3525 4100 3525 3541 
Q 3525 3141 3298 2862 
Q 3072 2584 2669 2484 
Q 3125 2378 3379 2068 
Q 3634 1759 3634 1313 
Q 3634 634 3220 271 
Q 2806 -91 2034 -91 
Q 1263 -91 848 271 
Q 434 634 434 1313 
Q 434 1759 690 2068 
Q 947 2378 1403 2484 
z
M 1172 3481 
Q 1172 3119 1398 2916 
Q 1625 2713 2034 2713 
Q 2441 2713 2670 2916 
Q 2900 3119 2900 3481 
Q 2900 3844 2670 4047 
Q 2441 4250 2034 4250 
Q 1625 4250 1398 4047 
Q 1172 3844 1172 3481 
z
" transform="scale(0.015625)"/>
       </defs>
       <use xlink:href="#DejaVuSans-38"/>
       <use xlink:href="#DejaVuSans-30" x="63.623047"/>
      </g>
     </g>
    </g>
    <g id="ytick_4">
     <g id="line2d_69">
      <path d="M 57.6 184.763077 
L 414.72 184.763077 
" clip-path="url(#pde149e5ce6)" style="fill: none; stroke: #808080; stroke-width: 0.5; stroke-linecap: square"/>
     </g>
     <g id="line2d_70">
      <g>
       <use xlink:href="#mf2465548fd" x="57.6" y="184.763077" style="stroke: #000000; stroke-width: 0.8"/>
      </g>
     </g>
     <g id="text_12">
      <!-- 100 -->
      <g transform="translate(31.5125 188.562296) scale(0.1 -0.1)">
       <use xlink:href="#DejaVuSans-31"/>
       <use xlink:href="#DejaVuSans-30" x="63.623047"/>
       <use xlink:href="#DejaVuSans-30" x="127.246094"/>
      </g>
     </g>
    </g>
    <g id="ytick_5">
     <g id="line2d_71">
      <path d="M 57.6 143.822769 
L 414.72 143.822769 
" clip-path="url(#pde149e5ce6)" style="fill: none; stroke: #808080; stroke-width: 0.5; stroke-linecap: square"/>
     </g>
     <g id="line2d_72">
      <g>
       <use xlink:href="#mf2465548fd" x="57.6" y="143.822769" style="stroke: #000000; stroke-width: 0.8"/>
      </g>
     </g>
     <g id="text_13">
      <!-- 120 -->
      <g transform="translate(31.5125 147.621988) scale(0.1 -0.1)">
       <use xlink:href="#DejaVuSans-31"/>
       <use xlink:href="#DejaVuSans-32" x="63.623047"/>
       <use xlink:href="#DejaVuSans-30" x="127.246094"/>
      </g>
     </g>
    </g>
    <g id="ytick_6">
     <g id="line2d_73">
      <path d="M 57.6 102.882462 
L 414.72 102.882462 
" clip-path="url(#pde149e5ce6)" style="fill: none; stroke: #808080; stroke-width: 0.5; stroke-linecap: square"/>
     </g>
     <g id="line2d_74">
      <g>
       <use xlink:href="#mf2465548fd" x="57.6" y="102.882462" style="stroke: #000000; stroke-width: 0.8"/>
      </g>
     </g>
     <g id="text_14">
      <!-- 140 -->
      <g transform="translate(31.5125 106.68168) scale(0.1 -0.1)">
       <use xlink:href="#DejaVuSans-31"/>
       <use xlink:href="#DejaVuSans-34" x="63.623047"/>
       <use xlink:href="#DejaVuSans-30" x="127.246094"/>
      </g>
     </g>
    </g>
    <g id="ytick_7">
     <g id="line2d_75">
      <path d="M 57.6 61.942154 
L 414.72 61.942154 
" clip-path="url(#pde149e5ce6)" style="fill: none; stroke: #808080; stroke-width: 0.5; stroke-linecap: square"/>
     </g>
     <g id="line2d_76">
      <g>
       <use xlink:href="#mf2465548fd" x="57.6" y="61.942154" style="stroke: #000000; stroke-width: 0.8"/>
      </g>
     </g>
     <g id="text_15">
      <!-- 160 -->
      <g transform="translate(31.5125 65.741373) scale(0.1 -0.1)">
       <use xlink:href="#DejaVuSans-31"/>
       <use xlink:href="#DejaVuSans-36" x="63.623047"/>
       <use xlink:href="#DejaVuSans-30" x="127.246094"/>
      </g>
     </g>
    </g>
    <g id="ytick_8">
     <g id="line2d_77">
      <path d="M 57.6 297.348923 
L 414.72 297.348923 
" clip-path="url(#pde149e5ce6)" style="fill: none; stroke-dasharray: 0.8,1.32; stroke-dashoffset: 0; stroke: #696969; stroke-width: 0.8"/>
     </g>
     <g id="line2d_78">
      <defs>
       <path id="m863a210eba" d="M 0 0 
L -2 0 
" style="stroke: #000000; stroke-width: 0.6"/>
      </defs>
      <g>
       <use xlink:href="#m863a210eba" x="57.6" y="297.348923" style="stroke: #000000; stroke-width: 0.6"/>
      </g>
     </g>
    </g>
    <g id="ytick_9">
     <g id="line2d_79">
      <path d="M 57.6 287.113846 
L 414.72 287.113846 
" clip-path="url(#pde149e5ce6)" style="fill: none; stroke-dasharray: 0.8,1.32; stroke-dashoffset: 0; stroke: #696969; stroke-width: 0.8"/>
     </g>
     <g id="line2d_80">
      <g>
       <use xlink:href="#m863a210eba" x="57.6" y="287.113846" style="stroke: #000000; stroke-width: 0.6"/>
      </g>
     </g>
    </g>
    <g id="ytick_10">
     <g id="line2d_81">
      <path d="M 57.6 276.878769 
L 414.72 276.878769 
" clip-path="url(#pde149e5ce6)" style="fill: none; stroke-dasharray: 0.8,1.32; stroke-dashoffset: 0; stroke: #696969; stroke-width: 0.8"/>
     </g>
     <g id="line2d_82">
      <g>
       <use xlink:href="#m863a210eba" x="57.6" y="276.878769" style="stroke: #000000; stroke-width: 0.6"/>
      </g>
     </g>
    </g>
    <g id="ytick_11">
     <g id="line2d_83">
      <path d="M 57.6 256.408615 
L 414.72 256.408615 
" clip-path="url(#pde149e5ce6)" style="fill: none; stroke-dasharray: 0.8,1.32; stroke-dashoffset: 0; stroke: #696969; stroke-width: 0.8"/>
     </g>
     <g id="line2d_84">
      <g>
       <use xlink:href="#m863a210eba" x="57.6" y="256.408615" style="stroke: #000000; stroke-width: 0.6"/>
      </g>
     </g>
    </g>
    <g id="ytick_12">
     <g id="line2d_85">
      <path d="M 57.6 246.173538 
L 414.72 246.173538 
" clip-path="url(#pde149e5ce6)" style="fill: none; stroke-dasharray: 0.8,1.32; stroke-dashoffset: 0; stroke: #696969; stroke-width: 0.8"/>
     </g>
     <g id="line2d_86">
      <g>
       <use xlink:href="#m863a210eba" x="57.6" y="246.173538" style="stroke: #000000; stroke-width: 0.6"/>
      </g>
     </g>
    </g>
    <g id="ytick_13">
     <g id="line2d_87">
      <path d="M 57.6 235.938462 
L 414.72 235.938462 
" clip-path="url(#pde149e5ce6)" style="fill: none; stroke-dasharray: 0.8,1.32; stroke-dashoffset: 0; stroke: #696969; stroke-width: 0.8"/>
     </g>
     <g id="line2d_88">
      <g>
       <use xlink:href="#m863a210eba" x="57.6" y="235.938462" style="stroke: #000000; stroke-width: 0.6"/>
      </g>
     </g>
    </g>
    <g id="ytick_14">
     <g id="line2d_89">
      <path d="M 57.6 215.468308 
L 414.72 215.468308 
" clip-path="url(#pde149e5ce6)" style="fill: none; stroke-dasharray: 0.8,1.32; stroke-dashoffset: 0; stroke: #696969; stroke-width: 0.8"/>
     </g>
     <g id="line2d_90">
      <g>
       <use xlink:href="#m863a210eba" x="57.6" y="215.468308" style="stroke: #000000; stroke-width: 0.6"/>
      </g>
     </g>
    </g>
    <g id="ytick_15">
     <g id="line2d_91">
      <path d="M 57.6 205.233231 
L 414.72 205.233231 
" clip-path="url(#pde149e5ce6)" style="fill: none; stroke-dasharray: 0.8,1.32; stroke-dashoffset: 0; stroke: #696969; stroke-width: 0.8"/>
     </g>
     <g id="line2d_92">
      <g>
       <use xlink:href="#m863a210eba" x="57.6" y="205.233231" style="stroke: #000000; stroke-width: 0.6"/>
      </g>
     </g>
    </g>
    <g id="ytick_16">
     <g id="line2d_93">
      <path d="M 57.6 194.998154 
L 414.72 194.998154 
" clip-path="url(#pde149e5ce6)" style="fill: none; stroke-dasharray: 0.8,1.32; stroke-dashoffset: 0; stroke: #696969; stroke-width: 0.8"/>
     </g>
     <g id="line2d_94">
      <g>
       <use xlink:href="#m863a210eba" x="57.6" y="194.998154" style="stroke: #000000; stroke-width: 0.6"/>
      </g>
     </g>
    </g>
    <g id="ytick_17">
     <g id="line2d_95">
      <path d="M 57.6 174.528 
L 414.72 174.528 
" clip-path="url(#pde149e5ce6)" style="fill: none; stroke-dasharray: 0.8,1.32; stroke-dashoffset: 0; stroke: #696969; stroke-width: 0.8"/>
     </g>
     <g id="line2d_96">
      <g>
       <use xlink:href="#m863a210eba" x="57.6" y="174.528" style="stroke: #000000; stroke-width: 0.6"/>
      </g>
     </g>
    </g>
    <g id="ytick_18">
     <g id="line2d_97">
      <path d="M 57.6 164.292923 
L 414.72 164.292923 
" clip-path="url(#pde149e5ce6)" style="fill: none; stroke-dasharray: 0.8,1.32; stroke-dashoffset: 0; stroke: #696969; stroke-width: 0.8"/>
     </g>
     <g id="line2d_98">
      <g>
       <use xlink:href="#m863a210eba" x="57.6" y="164.292923" style="stroke: #000000; stroke-width: 0.6"/>
      </g>
     </g>
    </g>
    <g id="ytick_19">
     <g id="line2d_99">
      <path d="M 57.6 154.057846 
L 414.72 154.057846 
" clip-path="url(#pde149e5ce6)" style="fill: none; stroke-dasharray: 0.8,1.32; stroke-dashoffset: 0; stroke: #696969; stroke-width: 0.8"/>
     </g>
     <g id="line2d_100">
      <g>
       <use xlink:href="#m863a210eba" x="57.6" y="154.057846" style="stroke: #000000; stroke-width: 0.6"/>
      </g>
     </g>
    </g>
    <g id="ytick_20">
     <g id="line2d_101">
      <path d="M 57.6 133.587692 
L 414.72 133.587692 
" clip-path="url(#pde149e5ce6)" style="fill: none; stroke-dasharray: 0.8,1.32; stroke-dashoffset: 0; stroke: #696969; stroke-width: 0.8"/>
     </g>
     <g id="line2d_102">
      <g>
       <use xlink:href="#m863a210eba" x="57.6" y="133.587692" style="stroke: #000000; stroke-width: 0.6"/>
      </g>
     </g>
    </g>
    <g id="ytick_21">
     <g id="line2d_103">
      <path d="M 57.6 123.352615 
L 414.72 123.352615 
" clip-path="url(#pde149e5ce6)" style="fill: none; stroke-dasharray: 0.8,1.32; stroke-dashoffset: 0; stroke: #696969; stroke-width: 0.8"/>
     </g>
     <g id="line2d_104">
      <g>
       <use xlink:href="#m863a210eba" x="57.6" y="123.352615" style="stroke: #000000; stroke-width: 0.6"/>
      </g>
     </g>
    </g>
    <g id="ytick_22">
     <g id="line2d_105">
      <path d="M 57.6 113.117538 
L 414.72 113.117538 
" clip-path="url(#pde149e5ce6)" style="fill: none; stroke-dasharray: 0.8,1.32; stroke-dashoffset: 0; stroke: #696969; stroke-width: 0.8"/>
     </g>
     <g id="line2d_106">
      <g>
       <use xlink:href="#m863a210eba" x="57.6" y="113.117538" style="stroke: #000000; stroke-width: 0.6"/>
      </g>
     </g>
    </g>
    <g id="ytick_23">
     <g id="line2d_107">
      <path d="M 57.6 92.647385 
L 414.72 92.647385 
" clip-path="url(#pde149e5ce6)" style="fill: none; stroke-dasharray: 0.8,1.32; stroke-dashoffset: 0; stroke: #696969; stroke-width: 0.8"/>
     </g>
     <g id="line2d_108">
      <g>
       <use xlink:href="#m863a210eba" x="57.6" y="92.647385" style="stroke: #000000; stroke-width: 0.6"/>
      </g>
     </g>
    </g>
    <g id="ytick_24">
     <g id="line2d_109">
      <path d="M 57.6 82.412308 
L 414.72 82.412308 
" clip-path="url(#pde149e5ce6)" style="fill: none; stroke-dasharray: 0.8,1.32; stroke-dashoffset: 0; stroke: #696969; stroke-width: 0.8"/>
     </g>
     <g id="line2d_110">
      <g>
       <use xlink:href="#m863a210eba" x="57.6" y="82.412308" style="stroke: #000000; stroke-width: 0.6"/>
      </g>
     </g>
    </g>
    <g id="ytick_25">
     <g id="line2d_111">
      <path d="M 57.6 72.177231 
L 414.72 72.177231 
" clip-path="url(#pde149e5ce6)" style="fill: none; stroke-dasharray: 0.8,1.32; stroke-dashoffset: 0; stroke: #696969; stroke-width: 0.8"/>
     </g>
     <g id="line2d_112">
      <g>
       <use xlink:href="#m863a210eba" x="57.6" y="72.177231" style="stroke: #000000; stroke-width: 0.6"/>
      </g>
     </g>
    </g>
    <g id="ytick_26">
     <g id="line2d_113">
      <path d="M 57.6 51.707077 
L 414.72 51.707077 
" clip-path="url(#pde149e5ce6)" style="fill: none; stroke-dasharray: 0.8,1.32; stroke-dashoffset: 0; stroke: #696969; stroke-width: 0.8"/>
     </g>
     <g id="line2d_114">
      <g>
       <use xlink:href="#m863a210eba" x="57.6" y="51.707077" style="stroke: #000000; stroke-width: 0.6"/>
      </g>
     </g>
    </g>
    <g id="ytick_27">
     <g id="line2d_115">
      <path d="M 57.6 41.472 
L 414.72 41.472 
" clip-path="url(#pde149e5ce6)" style="fill: none; stroke-dasharray: 0.8,1.32; stroke-dashoffset: 0; stroke: #696969; stroke-width: 0.8"/>
     </g>
     <g id="line2d_116">
      <g>
       <use xlink:href="#m863a210eba" x="57.6" y="41.472" style="stroke: #000000; stroke-width: 0.6"/>
      </g>
     </g>
    </g>
    <g id="text_16">
     <!-- Давление P [мм рт. ст.] -->
     <g transform="translate(25.016875 248.360813) rotate(-90) scale(0.12 -0.12)">
      <defs>
       <path id="DejaVuSans-414" d="M 1459 531 
L 3522 531 
L 3522 4134 
L 2006 4134 
L 2006 3472 
Q 2006 1913 1656 878 
Q 1584 666 1459 531 
z
M 538 531 
Q 956 728 1075 1103 
Q 1378 2066 1378 3784 
L 1378 4666 
L 4153 4666 
L 4153 531 
L 4684 531 
L 4684 -1003 
L 4153 -1003 
L 4153 0 
L 847 0 
L 847 -1003 
L 316 -1003 
L 316 531 
L 538 531 
z
" transform="scale(0.015625)"/>
       <path id="DejaVuSans-430" d="M 2194 1759 
Q 1497 1759 1228 1600 
Q 959 1441 959 1056 
Q 959 750 1161 570 
Q 1363 391 1709 391 
Q 2188 391 2477 730 
Q 2766 1069 2766 1631 
L 2766 1759 
L 2194 1759 
z
M 3341 1997 
L 3341 0 
L 2766 0 
L 2766 531 
Q 2569 213 2275 61 
Q 1981 -91 1556 -91 
Q 1019 -91 701 211 
Q 384 513 384 1019 
Q 384 1609 779 1909 
Q 1175 2209 1959 2209 
L 2766 2209 
L 2766 2266 
Q 2766 2663 2505 2880 
Q 2244 3097 1772 3097 
Q 1472 3097 1187 3025 
Q 903 2953 641 2809 
L 641 3341 
Q 956 3463 1253 3523 
Q 1550 3584 1831 3584 
Q 2591 3584 2966 3190 
Q 3341 2797 3341 1997 
z
" transform="scale(0.015625)"/>
       <path id="DejaVuSans-432" d="M 1156 1613 
L 1156 459 
L 1975 459 
Q 2369 459 2575 607 
Q 2781 756 2781 1038 
Q 2781 1319 2575 1466 
Q 2369 1613 1975 1613 
L 1156 1613 
z
M 1156 3041 
L 1156 2072 
L 1913 2072 
Q 2238 2072 2444 2201 
Q 2650 2331 2650 2563 
Q 2650 2794 2444 2917 
Q 2238 3041 1913 3041 
L 1156 3041 
z
M 581 3500 
L 1950 3500 
Q 2566 3500 2897 3275 
Q 3228 3050 3228 2634 
Q 3228 2313 3059 2123 
Q 2891 1934 2559 1888 
Q 2956 1813 3175 1575 
Q 3394 1338 3394 981 
Q 3394 513 3033 256 
Q 2672 0 2003 0 
L 581 0 
L 581 3500 
z
" transform="scale(0.015625)"/>
       <path id="DejaVuSans-43b" d="M 238 0 
L 238 478 
Q 806 566 981 959 
Q 1194 1513 1194 2928 
L 1194 3500 
L 3559 3500 
L 3559 0 
L 2984 0 
L 2984 3041 
L 1769 3041 
L 1769 2694 
Q 1769 1344 1494 738 
Q 1200 91 238 0 
z
" transform="scale(0.015625)"/>
       <path id="DejaVuSans-43d" d="M 581 3500 
L 1159 3500 
L 1159 2072 
L 3025 2072 
L 3025 3500 
L 3603 3500 
L 3603 0 
L 3025 0 
L 3025 1613 
L 1159 1613 
L 1159 0 
L 581 0 
L 581 3500 
z
" transform="scale(0.015625)"/>
       <path id="DejaVuSans-438" d="M 3578 3500 
L 3578 0 
L 3006 0 
L 3006 2809 
L 1319 0 
L 581 0 
L 581 3500 
L 1153 3500 
L 1153 697 
L 2838 3500 
L 3578 3500 
z
" transform="scale(0.015625)"/>
       <path id="DejaVuSans-50" d="M 1259 4147 
L 1259 2394 
L 2053 2394 
Q 2494 2394 2734 2622 
Q 2975 2850 2975 3272 
Q 2975 3691 2734 3919 
Q 2494 4147 2053 4147 
L 1259 4147 
z
M 628 4666 
L 2053 4666 
Q 2838 4666 3239 4311 
Q 3641 3956 3641 3272 
Q 3641 2581 3239 2228 
Q 2838 1875 2053 1875 
L 1259 1875 
L 1259 0 
L 628 0 
L 628 4666 
z
" transform="scale(0.015625)"/>
       <path id="DejaVuSans-442" d="M 188 3500 
L 3541 3500 
L 3541 3041 
L 2147 3041 
L 2147 0 
L 1581 0 
L 1581 3041 
L 188 3041 
L 188 3500 
z
" transform="scale(0.015625)"/>
       <path id="DejaVuSans-2e" d="M 684 794 
L 1344 794 
L 1344 0 
L 684 0 
L 684 794 
z
" transform="scale(0.015625)"/>
      </defs>
      <use xlink:href="#DejaVuSans-414"/>
      <use xlink:href="#DejaVuSans-430" x="78.125"/>
      <use xlink:href="#DejaVuSans-432" x="139.404297"/>
      <use xlink:href="#DejaVuSans-43b" x="198.339844"/>
      <use xlink:href="#DejaVuSans-435" x="262.255859"/>
      <use xlink:href="#DejaVuSans-43d" x="323.779297"/>
      <use xlink:href="#DejaVuSans-438" x="389.160156"/>
      <use xlink:href="#DejaVuSans-435" x="454.150391"/>
      <use xlink:href="#DejaVuSans-20" x="515.673828"/>
      <use xlink:href="#DejaVuSans-50" x="547.460938"/>
      <use xlink:href="#DejaVuSans-20" x="607.763672"/>
      <use xlink:href="#DejaVuSans-5b" x="639.550781"/>
      <use xlink:href="#DejaVuSans-43c" x="678.564453"/>
      <use xlink:href="#DejaVuSans-43c" x="754.003906"/>
      <use xlink:href="#DejaVuSans-20" x="829.443359"/>
      <use xlink:href="#DejaVuSans-440" x="861.230469"/>
      <use xlink:href="#DejaVuSans-442" x="924.707031"/>
      <use xlink:href="#DejaVuSans-2e" x="982.958984"/>
      <use xlink:href="#DejaVuSans-20" x="1014.746094"/>
      <use xlink:href="#DejaVuSans-441" x="1046.533203"/>
      <use xlink:href="#DejaVuSans-442" x="1101.513672"/>
      <use xlink:href="#DejaVuSans-2e" x="1159.765625"/>
      <use xlink:href="#DejaVuSans-5d" x="1191.552734"/>
     </g>
    </g>
   </g>
   <g id="line2d_117">
    <path d="M 57.6 50.294636 
L 57.991544 50.294636 
L 58.383088 50.921023 
L 59.166177 50.921023 
L 59.949265 52.800183 
L 60.732353 55.932117 
L 61.123898 54.679343 
L 61.515442 57.811277 
L 61.906986 59.481641 
L 63.081618 61.778393 
L 63.473163 61.987188 
L 64.256251 62.82237 
L 64.647795 63.448757 
L 65.039339 62.613575 
L 65.430883 64.701531 
L 66.605516 67.624669 
L 66.99706 68.251055 
L 67.388604 69.503829 
L 67.780148 69.712624 
L 68.171693 70.965398 
L 68.563237 71.174193 
L 68.954781 70.130215 
L 69.737869 73.053353 
L 70.129414 73.67974 
L 70.520958 73.470944 
L 71.69559 77.646856 
L 72.087134 78.273243 
L 72.478679 77.855651 
L 72.870223 77.855651 
L 73.261767 79.734812 
L 74.044855 82.031563 
L 74.436399 82.031563 
L 75.219488 83.493132 
L 75.611032 84.328314 
L 76.002576 84.745905 
L 76.39412 84.53711 
L 76.785664 85.581088 
L 77.177209 84.745905 
L 77.568753 86.41627 
L 78.743385 89.339408 
L 79.526474 90.800977 
L 79.918018 91.427363 
L 80.309562 92.680137 
L 80.701106 92.471341 
L 81.09265 91.844955 
L 81.484194 94.350501 
L 81.875739 95.394479 
L 82.267283 95.394479 
L 82.658827 96.020866 
L 83.050371 97.482435 
L 83.441915 97.900026 
L 84.225004 99.570391 
L 84.616548 99.361595 
L 85.008092 98.526413 
L 85.399636 100.405573 
L 85.79118 101.449551 
L 87.357357 103.746302 
L 87.748901 104.163893 
L 88.923534 105.834258 
L 89.315078 104.999075 
L 89.706622 105.416667 
L 90.098166 107.295827 
L 90.48971 107.713418 
L 90.881255 108.5486 
L 91.272799 108.5486 
L 91.664343 109.801374 
L 92.055887 110.636556 
L 92.447431 111.054147 
L 92.838975 111.889329 
L 93.23052 110.636556 
L 93.622064 111.680534 
L 94.405152 114.394876 
L 94.796696 114.603672 
L 95.971329 116.482832 
L 96.362873 117.52681 
L 96.754417 117.109218 
L 97.145961 117.109218 
L 97.92905 120.449948 
L 98.320594 120.032356 
L 98.712138 120.449948 
L 99.103682 121.702721 
L 99.495226 122.329108 
L 99.886771 123.581881 
L 100.278315 123.581881 
L 100.669859 123.373086 
L 101.061403 121.911517 
L 101.844491 125.252246 
L 102.236036 125.669837 
L 103.019124 126.087428 
L 103.410668 126.505019 
L 103.802212 127.966588 
L 104.193756 128.384179 
L 104.585301 128.384179 
L 104.976845 127.340201 
L 105.368389 127.131406 
L 105.759933 129.428157 
L 106.151477 130.472135 
L 106.543022 130.889726 
L 106.934566 130.68093 
L 107.32611 130.889726 
L 107.717654 131.307317 
L 108.109198 132.977682 
L 108.500742 133.186477 
L 108.892287 133.186477 
L 109.283831 132.351295 
L 109.675375 131.933704 
L 110.066919 134.856842 
L 110.458463 135.065637 
L 110.850007 135.90082 
L 111.241552 135.90082 
L 111.633096 137.153593 
L 112.02464 137.362389 
L 112.416184 137.988775 
L 112.807728 137.77998 
L 113.199272 136.944798 
L 113.590817 139.032753 
L 113.982361 139.867936 
L 114.373905 140.285527 
L 114.765449 140.285527 
L 115.156993 141.120709 
L 115.548537 141.329504 
L 115.940082 142.373482 
L 116.331626 142.373482 
L 116.72317 142.791073 
L 117.114714 140.911913 
L 117.506258 141.955891 
L 117.897802 144.252642 
L 118.289347 144.879029 
L 118.680891 144.670234 
L 119.463979 146.758189 
L 119.855523 147.17578 
L 120.247068 147.802167 
L 120.638612 145.505416 
L 121.030156 146.340598 
L 121.4217 149.263736 
L 121.813244 149.890123 
L 122.204788 150.098918 
L 122.596333 150.51651 
L 123.379421 152.604465 
L 123.770965 152.604465 
L 124.162509 152.186874 
L 124.554053 149.472532 
L 124.945598 150.51651 
L 125.337142 153.230852 
L 125.728686 154.483625 
L 126.511774 155.318808 
L 126.903318 155.318808 
L 127.294863 156.571581 
L 128.077951 157.615559 
L 128.469495 158.03315 
L 129.252583 154.27483 
L 130.427216 159.91231 
L 130.81876 159.703515 
L 131.601849 161.165084 
L 131.993393 162.000266 
L 132.384937 162.209061 
L 132.776481 162.626653 
L 133.168025 159.91231 
L 133.559569 160.538697 
L 133.951114 163.67063 
L 134.342658 164.714608 
L 134.734202 164.505813 
L 135.908834 166.176177 
L 136.300379 166.176177 
L 136.691923 166.384973 
L 137.083467 164.088222 
L 137.475011 165.549791 
L 137.866555 168.055337 
L 138.258099 168.681724 
L 138.649644 168.264133 
L 139.041188 168.89052 
L 139.432732 169.934497 
L 140.21582 170.978475 
L 140.998909 168.681724 
L 141.781997 172.64884 
L 142.173541 173.275227 
L 142.565085 172.857635 
L 142.95663 173.901613 
L 143.348174 174.528 
L 143.739718 174.736796 
L 144.131262 175.363182 
L 144.522806 173.066431 
L 144.91435 173.901613 
L 145.305895 175.989569 
L 145.697439 177.033547 
L 146.088983 177.242342 
L 146.480527 177.659934 
L 147.263615 179.121503 
L 147.65516 178.495116 
L 148.046704 175.989569 
L 148.438248 177.868729 
L 148.829792 180.374276 
L 149.221336 181.209458 
L 149.61288 181.000663 
L 150.004425 181.627049 
L 150.395969 182.671027 
L 150.787513 183.297414 
L 151.570601 179.539094 
L 152.35369 184.550187 
L 152.745234 185.176574 
L 153.136778 184.967778 
L 153.919866 187.055734 
L 154.31141 187.682121 
L 154.702955 185.176574 
L 155.094499 183.923801 
L 155.877587 188.308508 
L 156.269131 188.934894 
L 156.660676 188.726099 
L 157.835308 191.231646 
L 158.226852 189.561281 
L 158.618396 187.055734 
L 159.401485 191.440441 
L 159.793029 192.275623 
L 160.184573 191.649237 
L 161.359206 193.945988 
L 161.75075 193.737192 
L 162.142294 190.605259 
L 162.533838 191.858032 
L 162.925382 194.363579 
L 163.316926 196.033944 
L 163.708471 195.407557 
L 165.274647 197.913104 
L 165.666191 195.616352 
L 166.057736 194.363579 
L 167.232368 199.583468 
L 167.623912 199.374673 
L 168.015457 199.792264 
L 168.407001 200.418651 
L 168.798545 201.671424 
L 169.190089 201.88022 
L 169.581633 197.913104 
L 169.973177 198.748286 
L 170.756266 202.506606 
L 171.14781 202.924197 
L 171.539354 202.715402 
L 172.322442 204.803358 
L 172.713987 205.429744 
L 173.497075 201.462628 
L 174.280163 205.220949 
L 174.671707 206.056131 
L 175.063252 206.056131 
L 175.454796 206.264927 
L 175.84634 207.5177 
L 176.237884 208.144087 
L 176.629428 208.352882 
L 177.020972 204.385766 
L 177.412517 205.429744 
L 178.195605 208.770473 
L 178.587149 209.39686 
L 178.978693 209.605656 
L 180.153326 211.27602 
L 180.54487 210.858429 
L 180.936414 207.726496 
L 181.719503 211.484816 
L 182.111047 212.737589 
L 182.502591 212.528794 
L 182.894135 212.737589 
L 183.285679 213.572771 
L 184.068768 213.990363 
L 184.460312 210.649633 
L 184.851856 212.111202 
L 185.2434 214.407954 
L 185.634944 215.03434 
L 186.026488 215.243136 
L 186.418033 215.03434 
L 186.809577 216.495909 
L 187.201121 217.331092 
L 187.592665 217.122296 
L 187.984209 212.946385 
L 188.375753 212.737589 
L 189.158842 217.748683 
L 189.550386 217.539887 
L 189.94193 217.539887 
L 190.333474 218.166274 
L 190.725019 219.627843 
L 191.116563 220.463025 
L 191.508107 217.748683 
L 191.899651 216.078318 
L 192.682739 218.792661 
L 193.074284 219.419047 
L 193.465828 219.627843 
L 194.248916 221.298208 
L 194.64046 221.715799 
L 195.032004 221.089412 
L 195.423549 217.957478 
L 196.598181 222.13339 
L 196.989725 222.13339 
L 198.164358 224.638937 
L 198.555902 224.430141 
L 198.947446 221.298208 
L 199.33899 222.13339 
L 200.122079 224.847732 
L 200.513623 225.056528 
L 200.905167 225.056528 
L 201.688255 226.935688 
L 202.079799 227.353279 
L 202.471344 224.638937 
L 202.862888 224.430141 
L 203.645976 227.77087 
L 204.03752 227.562075 
L 204.429065 227.77087 
L 204.820609 228.397257 
L 205.212153 229.65003 
L 205.603697 229.65003 
L 205.995241 225.682914 
L 206.386785 226.935688 
L 206.77833 227.77087 
L 207.169874 229.232439 
L 207.561418 229.023644 
L 208.344506 230.485213 
L 208.73605 231.52919 
L 209.127595 231.320395 
L 209.519139 227.77087 
L 210.693771 231.111599 
L 211.085315 231.320395 
L 211.868404 232.781964 
L 212.259948 233.408351 
L 212.651492 233.199555 
L 213.043036 230.276417 
L 213.43458 230.694008 
L 213.826125 231.320395 
L 214.217669 232.781964 
L 215.392301 234.034737 
L 215.783846 234.661124 
L 216.17539 236.122693 
L 216.958478 232.573168 
L 217.350022 232.990759 
L 218.133111 235.287511 
L 218.524655 235.496306 
L 218.916199 236.122693 
L 219.307743 237.375466 
L 220.090831 238.837035 
L 220.482376 235.496306 
L 220.87392 235.078715 
L 221.657008 237.793057 
L 222.048552 238.210649 
L 223.614729 240.924991 
L 224.006273 239.881013 
L 224.397817 237.375466 
L 224.789361 238.210649 
L 225.57245 240.924991 
L 225.963994 240.716195 
L 227.138627 242.595356 
L 227.530171 242.38656 
L 227.921715 239.672218 
L 228.313259 239.881013 
L 229.096347 242.595356 
L 229.487892 242.38656 
L 230.662524 244.474516 
L 231.445612 240.5074 
L 231.837157 241.133787 
L 232.228701 242.38656 
L 232.620245 243.221742 
L 233.403333 244.056925 
L 234.186422 245.936085 
L 234.96951 241.760173 
L 236.144142 244.892107 
L 236.535687 245.100902 
L 237.710319 247.606449 
L 238.101863 246.562471 
L 238.493407 243.430538 
L 240.059584 246.562471 
L 240.842673 247.815245 
L 241.234217 248.859223 
L 241.625761 249.485609 
L 242.017305 246.14488 
L 242.408849 245.727289 
L 242.800393 246.353676 
L 243.191938 247.815245 
L 243.583482 248.02404 
L 243.975026 248.859223 
L 244.36657 249.068018 
L 245.149658 250.947178 
L 245.541203 249.694405 
L 245.932747 247.188858 
L 246.324291 247.815245 
L 246.715835 249.485609 
L 247.107379 250.111996 
L 247.498923 250.320792 
L 247.890468 250.738383 
L 248.673556 252.199952 
L 249.0651 252.826338 
L 249.456644 250.111996 
L 249.848188 249.485609 
L 250.239733 250.111996 
L 250.631277 251.573565 
L 251.022821 252.408747 
L 251.805909 253.24393 
L 252.588998 254.705499 
L 252.980542 252.199952 
L 253.372086 250.738383 
L 254.546719 253.452725 
L 254.938263 253.452725 
L 255.329807 253.870316 
L 256.112895 255.749476 
L 256.504439 253.661521 
L 256.895984 252.199952 
L 257.287528 252.408747 
L 257.679072 253.870316 
L 258.070616 254.705499 
L 258.46216 255.12309 
L 259.636793 257.00225 
L 260.419881 253.661521 
L 260.811425 253.452725 
L 261.202969 255.12309 
L 261.594514 255.540681 
L 263.16069 258.255023 
L 263.552235 257.419841 
L 263.943779 255.331885 
L 264.335323 255.958272 
L 264.726867 257.211045 
L 265.509955 258.255023 
L 266.293044 259.090206 
L 266.684588 259.925388 
L 267.076132 257.628637 
L 267.467676 256.375863 
L 267.85922 257.419841 
L 268.250765 258.88141 
L 268.642309 259.090206 
L 269.816941 260.969366 
L 270.208485 260.134183 
L 270.60003 257.837432 
L 270.991574 258.046228 
L 271.383118 258.88141 
L 271.774662 260.134183 
L 272.166206 260.342979 
L 273.340839 262.013344 
L 273.732383 259.299001 
L 274.123927 258.672614 
L 274.515471 259.090206 
L 274.907015 260.342979 
L 275.29856 260.969366 
L 275.690104 261.178161 
L 276.081648 261.595752 
L 276.473192 262.63973 
L 276.864736 262.430935 
L 277.256281 259.507797 
L 277.647825 259.299001 
L 278.039369 260.134183 
L 278.430913 261.386957 
L 279.214001 261.804548 
L 279.605546 262.848526 
L 280.388634 263.892504 
L 280.780178 260.76057 
L 281.171722 260.342979 
L 281.563266 260.969366 
L 281.954811 262.222139 
L 282.346355 262.430935 
L 283.520987 264.51889 
L 283.912531 265.354073 
L 284.304076 264.51889 
L 284.69562 261.804548 
L 285.087164 262.222139 
L 285.478708 263.057321 
L 285.870252 264.310095 
L 286.261796 264.101299 
L 287.436429 266.39805 
L 287.827973 267.024437 
L 288.219517 264.51889 
L 288.611062 263.892504 
L 289.785694 266.39805 
L 290.177238 266.606846 
L 291.351871 268.277211 
L 291.743415 265.145277 
L 292.134959 264.727686 
L 292.526503 265.771664 
L 292.918047 267.233233 
L 293.309592 267.442028 
L 294.09268 268.277211 
L 294.484224 269.112393 
L 294.875768 268.903597 
L 295.267312 265.980459 
L 295.658857 265.771664 
L 296.441945 267.859619 
L 297.225033 268.694802 
L 298.008122 269.947575 
L 298.399666 269.529984 
L 298.79121 266.815642 
L 299.182754 267.233233 
L 299.574298 267.442028 
L 299.965843 269.112393 
L 300.748931 269.947575 
L 301.532019 271.409144 
L 302.315108 268.068415 
L 302.706652 268.486006 
L 303.48974 270.365166 
L 304.272828 270.782757 
L 305.055917 272.244326 
L 305.447461 269.947575 
L 305.839005 268.903597 
L 306.230549 269.529984 
L 306.622093 270.991553 
L 307.796726 272.244326 
L 308.579814 273.288304 
L 309.362903 270.573962 
L 310.537535 273.079509 
L 311.320623 273.4971 
L 312.103712 274.749873 
L 312.495256 273.705895 
L 312.8868 271.61794 
L 313.278344 272.035531 
L 314.061433 274.332282 
L 314.844521 274.749873 
L 315.236065 275.167464 
L 315.627609 276.002647 
L 316.019154 273.914691 
L 316.410698 271.200349 
L 316.802242 271.61794 
L 317.58533 272.661918 
L 317.976874 272.035531 
L 319.151507 273.288304 
L 319.543051 270.365166 
L 319.934595 269.947575 
L 322.28386 273.705895 
L 322.675404 273.288304 
L 323.066949 270.991553 
L 323.458493 271.409144 
L 324.241581 273.079509 
L 324.633125 273.079509 
L 325.807758 275.167464 
L 326.199302 273.079509 
L 326.590846 272.661918 
L 326.98239 273.4971 
L 327.373935 274.749873 
L 328.157023 275.167464 
L 328.548567 275.585056 
L 328.940111 276.629033 
L 329.331655 276.002647 
L 329.7232 274.123487 
L 330.114744 274.541078 
L 330.506288 276.002647 
L 330.897832 276.629033 
L 331.289376 276.420238 
L 331.68092 276.837829 
L 332.072465 277.673011 
L 332.464009 277.25542 
L 332.855553 274.958669 
L 333.247097 275.37626 
L 333.638641 276.002647 
L 334.030185 277.046624 
L 334.42173 276.837829 
L 334.813274 277.25542 
L 335.204818 277.464216 
L 335.596362 278.299398 
L 335.987906 275.793851 
L 336.379451 274.958669 
L 337.162539 276.837829 
L 337.554083 276.837829 
L 338.337171 277.881807 
L 338.728716 278.299398 
L 339.12026 278.299398 
L 339.511804 276.211442 
L 339.903348 276.002647 
L 340.294892 276.211442 
L 341.077981 277.673011 
L 341.469525 278.090602 
L 341.861069 278.925785 
L 342.252613 279.343376 
L 342.644157 279.969762 
L 343.035701 277.046624 
L 343.427246 277.046624 
L 343.81879 277.464216 
L 344.210334 278.508193 
L 344.993422 278.925785 
L 345.384966 279.760967 
L 345.776511 280.178558 
L 346.168055 281.222536 
L 346.559599 279.969762 
L 346.951143 278.299398 
L 347.342687 278.925785 
L 347.734231 279.969762 
L 348.125776 280.596149 
L 348.51732 280.596149 
L 348.908864 280.804945 
L 349.300408 280.804945 
L 349.691952 281.848923 
L 350.083497 281.640127 
L 350.475041 279.552171 
L 350.866585 280.178558 
L 351.649673 282.057718 
L 352.432762 282.475309 
L 353.607394 284.563265 
L 353.998938 281.222536 
L 354.390482 281.01374 
L 354.782027 281.431331 
L 355.173571 282.475309 
L 355.565115 282.8929 
L 355.956659 283.101696 
L 356.348203 283.519287 
L 357.131292 284.980856 
L 357.522836 283.728083 
L 357.91438 282.057718 
L 358.305924 282.266514 
L 359.089012 284.145674 
L 359.480557 284.354469 
L 359.872101 284.772061 
L 361.046733 286.651221 
L 361.438278 284.145674 
L 361.829822 283.519287 
L 363.004454 286.024834 
L 363.395998 286.024834 
L 364.570631 287.903994 
L 364.962175 287.903994 
L 365.353719 285.189652 
L 365.745263 285.607243 
L 366.528352 287.486403 
L 366.919896 287.486403 
L 367.702984 288.530381 
L 368.094528 288.947972 
L 368.486073 288.530381 
L 368.877617 286.23363 
L 369.269161 286.024834 
L 369.660705 286.860016 
L 370.052249 287.277607 
L 370.443793 286.024834 
L 370.835338 287.277607 
L 371.226882 287.486403 
L 371.618426 287.903994 
L 372.00997 286.024834 
L 372.401514 284.772061 
L 372.793059 284.563265 
L 373.576147 287.277607 
L 373.967691 286.651221 
L 374.359235 286.860016 
L 374.750779 288.11279 
L 375.142324 288.739176 
L 375.533868 286.651221 
L 375.925412 286.860016 
L 376.7085 288.947972 
L 377.100044 288.947972 
L 378.274677 290.827132 
L 378.666221 288.947972 
L 379.057765 287.695199 
L 379.449309 288.321585 
L 379.840854 289.365563 
L 380.232398 289.783154 
L 380.623942 289.783154 
L 381.015486 289.99195 
L 381.40703 290.618336 
L 381.798574 290.827132 
L 382.190119 288.530381 
L 382.581663 288.739176 
L 383.756295 290.618336 
L 384.14784 290.827132 
L 384.539384 291.453519 
L 384.930928 291.662314 
L 385.322472 289.783154 
L 385.714016 289.783154 
L 386.497105 292.288701 
L 387.280193 292.288701 
L 387.671737 292.915088 
L 388.063281 293.123883 
L 388.454825 290.827132 
L 388.84637 290.827132 
L 389.629458 292.706292 
L 390.021002 293.123883 
L 390.80409 293.541474 
L 391.195635 294.376657 
L 391.587179 292.706292 
L 391.978723 291.87111 
L 393.153355 294.167861 
L 393.5449 294.167861 
L 394.719532 295.838226 
L 395.111076 293.541474 
L 395.50262 293.541474 
L 395.894165 294.167861 
L 396.285709 295.211839 
L 397.068797 295.62943 
L 397.460341 296.047021 
L 397.851886 296.882204 
L 398.24343 297.299795 
L 398.634974 295.003043 
L 399.026518 294.794248 
L 399.809606 296.673408 
L 400.984239 297.299795 
L 401.767327 298.761364 
L 402.158871 296.882204 
L 402.550416 296.047021 
L 403.333504 298.343773 
L 403.725048 298.343773 
L 404.116592 298.552568 
L 404.508136 298.970159 
L 404.899681 299.178955 
L 405.291225 300.014137 
L 405.682769 298.552568 
L 406.074313 297.926181 
L 406.465857 298.552568 
L 406.857401 299.805342 
L 407.248946 300.222933 
L 407.64049 300.222933 
L 408.032034 300.640524 
L 408.423578 300.849319 
L 408.815122 301.893297 
L 409.206667 299.596546 
L 409.598211 299.178955 
L 410.381299 301.475706 
L 410.772843 301.266911 
L 411.555932 301.684502 
L 412.33902 302.72848 
L 412.730564 300.431728 
L 413.122108 300.431728 
L 413.905197 302.310888 
L 414.296741 302.519684 
L 414.688285 302.519684 
L 414.688285 302.519684 
" clip-path="url(#pde149e5ce6)" style="fill: none; stroke: #ffa500; stroke-width: 1.5; stroke-linecap: square"/>
   </g>
   <g id="line2d_118">
    <path d="M 57.6 51.368023 
L 64.256842 63.533839 
L 70.913684 75.215187 
L 77.570526 86.427385 
L 84.227368 97.18505 
L 90.884211 107.502138 
L 97.541053 117.391988 
L 104.197895 126.867365 
L 110.854737 135.940494 
L 117.511579 144.623112 
L 124.168421 152.9265 
L 130.825263 160.861531 
L 137.482105 168.438706 
L 144.138947 175.668202 
L 150.795789 182.559909 
L 157.452632 189.12347 
L 164.109474 195.368328 
L 170.766316 201.303762 
L 177.423158 206.938934 
L 184.08 212.282924 
L 190.736842 217.344777 
L 197.393684 222.133542 
L 204.050526 226.658313 
L 211.098947 231.171709 
L 218.147368 235.410495 
L 225.195789 239.385944 
L 232.244211 243.109606 
L 239.684211 246.780108 
L 247.124211 250.197736 
L 254.564211 253.377469 
L 262.395789 256.484708 
L 270.618947 259.503052 
L 279.233684 262.421614 
L 288.24 265.236504 
L 298.029474 268.061448 
L 308.993684 270.9915 
L 322.698947 274.411328 
L 360.682105 283.741809 
L 370.863158 286.560783 
L 379.477895 289.172756 
L 387.309474 291.778287 
L 394.357895 294.349933 
L 401.014737 297.008226 
L 407.28 299.741682 
L 413.153684 302.532296 
L 414.72 303.31669 
L 414.72 303.31669 
" clip-path="url(#pde149e5ce6)" style="fill: none; stroke: #ff0000; stroke-width: 1.5; stroke-linecap: square"/>
   </g>
   <g id="patch_3">
    <path d="M 57.6 307.584 
L 57.6 41.472 
" style="fill: none; stroke: #000000; stroke-width: 0.8; stroke-linejoin: miter; stroke-linecap: square"/>
   </g>
   <g id="patch_4">
    <path d="M 414.72 307.584 
L 414.72 41.472 
" style="fill: none; stroke: #000000; stroke-width: 0.8; stroke-linejoin: miter; stroke-linecap: square"/>
   </g>
   <g id="patch_5">
    <path d="M 57.6 307.584 
L 414.72 307.584 
" style="fill: none; stroke: #000000; stroke-width: 0.8; stroke-linejoin: miter; stroke-linecap: square"/>
   </g>
   <g id="patch_6">
    <path d="M 57.6 41.472 
L 414.72 41.472 
" style="fill: none; stroke: #000000; stroke-width: 0.8; stroke-linejoin: miter; stroke-linecap: square"/>
   </g>
   <g id="text_17">
    <!-- Систолическое -->
    <g transform="translate(117.12 133.587692) scale(0.1 -0.1)">
     <defs>
      <path id="DejaVuSans-421" d="M 4122 4306 
L 4122 3641 
Q 3803 3938 3442 4084 
Q 3081 4231 2675 4231 
Q 1875 4231 1450 3742 
Q 1025 3253 1025 2328 
Q 1025 1406 1450 917 
Q 1875 428 2675 428 
Q 3081 428 3442 575 
Q 3803 722 4122 1019 
L 4122 359 
Q 3791 134 3420 21 
Q 3050 -91 2638 -91 
Q 1578 -91 968 557 
Q 359 1206 359 2328 
Q 359 3453 968 4101 
Q 1578 4750 2638 4750 
Q 3056 4750 3426 4639 
Q 3797 4528 4122 4306 
z
" transform="scale(0.015625)"/>
      <path id="DejaVuSans-43e" d="M 1959 3097 
Q 1497 3097 1228 2736 
Q 959 2375 959 1747 
Q 959 1119 1226 758 
Q 1494 397 1959 397 
Q 2419 397 2687 759 
Q 2956 1122 2956 1747 
Q 2956 2369 2687 2733 
Q 2419 3097 1959 3097 
z
M 1959 3584 
Q 2709 3584 3137 3096 
Q 3566 2609 3566 1747 
Q 3566 888 3137 398 
Q 2709 -91 1959 -91 
Q 1206 -91 779 398 
Q 353 888 353 1747 
Q 353 2609 779 3096 
Q 1206 3584 1959 3584 
z
" transform="scale(0.015625)"/>
      <path id="DejaVuSans-447" d="M 2625 0 
L 2625 1472 
L 1553 1472 
Q 1075 1472 756 1769 
Q 469 2038 469 2613 
L 469 3500 
L 1044 3500 
L 1044 2666 
Q 1044 2300 1206 2116 
Q 1372 1931 1697 1931 
L 2625 1931 
L 2625 3500 
L 3200 3500 
L 3200 0 
L 2625 0 
z
" transform="scale(0.015625)"/>
      <path id="DejaVuSans-43a" d="M 581 3500 
L 1153 3500 
L 1153 1856 
L 2775 3500 
L 3481 3500 
L 2144 2147 
L 3653 0 
L 3009 0 
L 1769 1766 
L 1153 1141 
L 1153 0 
L 581 0 
L 581 3500 
z
" transform="scale(0.015625)"/>
     </defs>
     <use xlink:href="#DejaVuSans-421"/>
     <use xlink:href="#DejaVuSans-438" x="69.824219"/>
     <use xlink:href="#DejaVuSans-441" x="134.814453"/>
     <use xlink:href="#DejaVuSans-442" x="189.794922"/>
     <use xlink:href="#DejaVuSans-43e" x="248.046875"/>
     <use xlink:href="#DejaVuSans-43b" x="309.228516"/>
     <use xlink:href="#DejaVuSans-438" x="373.144531"/>
     <use xlink:href="#DejaVuSans-447" x="438.134766"/>
     <use xlink:href="#DejaVuSans-435" x="497.216797"/>
     <use xlink:href="#DejaVuSans-441" x="558.740234"/>
     <use xlink:href="#DejaVuSans-43a" x="613.720703"/>
     <use xlink:href="#DejaVuSans-43e" x="674.121094"/>
     <use xlink:href="#DejaVuSans-435" x="735.302734"/>
    </g>
   </g>
   <g id="text_18">
    <!-- Диастолическое -->
    <g transform="translate(313.536 266.643692) scale(0.1 -0.1)">
     <use xlink:href="#DejaVuSans-414"/>
     <use xlink:href="#DejaVuSans-438" x="78.125"/>
     <use xlink:href="#DejaVuSans-430" x="143.115234"/>
     <use xlink:href="#DejaVuSans-441" x="204.394531"/>
     <use xlink:href="#DejaVuSans-442" x="259.375"/>
     <use xlink:href="#DejaVuSans-43e" x="317.626953"/>
     <use xlink:href="#DejaVuSans-43b" x="378.808594"/>
     <use xlink:href="#DejaVuSans-438" x="442.724609"/>
     <use xlink:href="#DejaVuSans-447" x="507.714844"/>
     <use xlink:href="#DejaVuSans-435" x="566.796875"/>
     <use xlink:href="#DejaVuSans-441" x="628.320312"/>
     <use xlink:href="#DejaVuSans-43a" x="683.300781"/>
     <use xlink:href="#DejaVuSans-43e" x="743.701172"/>
     <use xlink:href="#DejaVuSans-435" x="804.882812"/>
    </g>
   </g>
   <g id="text_19">
    <!-- График зависимости давления от времени -->
    <g transform="translate(65.685 18.675281) scale(0.15 -0.15)">
     <defs>
      <path id="DejaVuSans-413" d="M 628 0 
L 628 4666 
L 3531 4666 
L 3531 4134 
L 1259 4134 
L 1259 0 
L 628 0 
z
" transform="scale(0.015625)"/>
      <path id="DejaVuSans-444" d="M 947 1747 
Q 947 1013 1173 702 
Q 1400 391 1784 391 
Q 2091 391 2447 916 
L 2447 2578 
Q 2091 3103 1784 3103 
Q 1400 3103 1173 2792 
Q 947 2481 947 1747 
z
M 2447 -1331 
L 2447 447 
Q 2269 153 2064 31 
Q 1859 -91 1600 -91 
Q 1078 -91 714 392 
Q 350 875 350 1734 
Q 350 2594 714 3089 
Q 1078 3584 1600 3584 
Q 1859 3584 2064 3465 
Q 2269 3347 2447 3053 
L 2447 4666 
L 3025 4666 
L 3025 3053 
Q 3203 3347 3408 3465 
Q 3613 3584 3872 3584 
Q 4394 3584 4758 3089 
Q 5122 2594 5122 1734 
Q 5122 875 4758 392 
Q 4394 -91 3872 -91 
Q 3613 -91 3408 31 
Q 3203 153 3025 447 
L 3025 -1331 
L 2447 -1331 
z
M 4525 1747 
Q 4525 2481 4298 2792 
Q 4072 3103 3688 3103 
Q 3381 3103 3025 2578 
L 3025 916 
Q 3381 391 3688 391 
Q 4072 391 4298 702 
Q 4525 1013 4525 1747 
z
" transform="scale(0.015625)"/>
      <path id="DejaVuSans-437" d="M 2206 1888 
Q 2594 1813 2809 1584 
Q 3025 1356 3025 1019 
Q 3025 478 2622 193 
Q 2219 -91 1475 -91 
Q 1225 -91 961 -47 
Q 697 -3 416 84 
L 416 619 
Q 638 503 903 445 
Q 1169 388 1459 388 
Q 1931 388 2195 563 
Q 2459 738 2459 1019 
Q 2459 1294 2225 1461 
Q 1991 1628 1563 1628 
L 1100 1628 
L 1100 2103 
L 1584 2103 
Q 1947 2103 2158 2242 
Q 2369 2381 2369 2600 
Q 2369 2800 2151 2944 
Q 1934 3088 1563 3088 
Q 1341 3088 1089 3047 
Q 838 3006 534 2916 
L 534 3438 
Q 841 3513 1106 3550 
Q 1372 3588 1609 3588 
Q 2222 3588 2576 3342 
Q 2931 3097 2931 2656 
Q 2931 2366 2743 2164 
Q 2556 1963 2206 1888 
z
" transform="scale(0.015625)"/>
      <path id="DejaVuSans-434" d="M 1384 459 
L 3053 459 
L 3053 3041 
L 1844 3041 
L 1844 2603 
Q 1844 1316 1475 628 
L 1384 459 
z
M 550 459 
Q 834 584 959 850 
Q 1266 1509 1266 2838 
L 1266 3500 
L 3631 3500 
L 3631 459 
L 4091 459 
L 4091 -884 
L 3631 -884 
L 3631 0 
L 794 0 
L 794 -884 
L 334 -884 
L 334 459 
L 550 459 
z
" transform="scale(0.015625)"/>
     </defs>
     <use xlink:href="#DejaVuSans-413"/>
     <use xlink:href="#DejaVuSans-440" x="60.986328"/>
     <use xlink:href="#DejaVuSans-430" x="124.462891"/>
     <use xlink:href="#DejaVuSans-444" x="185.742188"/>
     <use xlink:href="#DejaVuSans-438" x="271.240234"/>
     <use xlink:href="#DejaVuSans-43a" x="336.230469"/>
     <use xlink:href="#DejaVuSans-20" x="396.630859"/>
     <use xlink:href="#DejaVuSans-437" x="428.417969"/>
     <use xlink:href="#DejaVuSans-430" x="481.591797"/>
     <use xlink:href="#DejaVuSans-432" x="542.871094"/>
     <use xlink:href="#DejaVuSans-438" x="601.806641"/>
     <use xlink:href="#DejaVuSans-441" x="666.796875"/>
     <use xlink:href="#DejaVuSans-438" x="721.777344"/>
     <use xlink:href="#DejaVuSans-43c" x="786.767578"/>
     <use xlink:href="#DejaVuSans-43e" x="862.207031"/>
     <use xlink:href="#DejaVuSans-441" x="923.388672"/>
     <use xlink:href="#DejaVuSans-442" x="978.369141"/>
     <use xlink:href="#DejaVuSans-438" x="1036.621094"/>
     <use xlink:href="#DejaVuSans-20" x="1101.611328"/>
     <use xlink:href="#DejaVuSans-434" x="1133.398438"/>
     <use xlink:href="#DejaVuSans-430" x="1202.539062"/>
     <use xlink:href="#DejaVuSans-432" x="1263.818359"/>
     <use xlink:href="#DejaVuSans-43b" x="1322.753906"/>
     <use xlink:href="#DejaVuSans-435" x="1386.669922"/>
     <use xlink:href="#DejaVuSans-43d" x="1448.193359"/>
     <use xlink:href="#DejaVuSans-438" x="1513.574219"/>
     <use xlink:href="#DejaVuSans-44f" x="1578.564453"/>
     <use xlink:href="#DejaVuSans-20" x="1638.720703"/>
     <use xlink:href="#DejaVuSans-43e" x="1670.507812"/>
     <use xlink:href="#DejaVuSans-442" x="1731.689453"/>
     <use xlink:href="#DejaVuSans-20" x="1789.941406"/>
     <use xlink:href="#DejaVuSans-432" x="1821.728516"/>
     <use xlink:href="#DejaVuSans-440" x="1880.664062"/>
     <use xlink:href="#DejaVuSans-435" x="1944.140625"/>
     <use xlink:href="#DejaVuSans-43c" x="2005.664062"/>
     <use xlink:href="#DejaVuSans-435" x="2081.103516"/>
     <use xlink:href="#DejaVuSans-43d" x="2142.626953"/>
     <use xlink:href="#DejaVuSans-438" x="2208.007812"/>
    </g>
    <!-- перед нагрузкой -->
    <g transform="translate(169.074844 35.472) scale(0.15 -0.15)">
     <defs>
      <path id="DejaVuSans-43f" d="M 3603 3500 
L 3603 0 
L 3025 0 
L 3025 3041 
L 1159 3041 
L 1159 0 
L 581 0 
L 581 3500 
L 3603 3500 
z
" transform="scale(0.015625)"/>
      <path id="DejaVuSans-433" d="M 581 0 
L 581 3500 
L 3050 3500 
L 3050 3041 
L 1159 3041 
L 1159 0 
L 581 0 
z
" transform="scale(0.015625)"/>
      <path id="DejaVuSans-443" d="M 2059 -325 
Q 1816 -950 1584 -1140 
Q 1353 -1331 966 -1331 
L 506 -1331 
L 506 -850 
L 844 -850 
Q 1081 -850 1212 -737 
Q 1344 -625 1503 -206 
L 1606 56 
L 191 3500 
L 800 3500 
L 1894 763 
L 2988 3500 
L 3597 3500 
L 2059 -325 
z
" transform="scale(0.015625)"/>
      <path id="DejaVuSans-439" d="M 3578 3500 
L 3578 0 
L 3006 0 
L 3006 2809 
L 1319 0 
L 581 0 
L 581 3500 
L 1153 3500 
L 1153 697 
L 2838 3500 
L 3578 3500 
z
M 1103 4862 
L 1472 4862 
Q 1506 4628 1657 4510 
Q 1809 4393 2081 4393 
Q 2350 4393 2500 4509 
Q 2650 4625 2691 4862 
L 3059 4862 
Q 3028 4415 2781 4190 
Q 2534 3965 2081 3965 
Q 1628 3965 1381 4190 
Q 1134 4415 1103 4862 
z
" transform="scale(0.015625)"/>
     </defs>
     <use xlink:href="#DejaVuSans-43f"/>
     <use xlink:href="#DejaVuSans-435" x="65.380859"/>
     <use xlink:href="#DejaVuSans-440" x="126.904297"/>
     <use xlink:href="#DejaVuSans-435" x="190.380859"/>
     <use xlink:href="#DejaVuSans-434" x="251.904297"/>
     <use xlink:href="#DejaVuSans-20" x="321.044922"/>
     <use xlink:href="#DejaVuSans-43d" x="352.832031"/>
     <use xlink:href="#DejaVuSans-430" x="418.212891"/>
     <use xlink:href="#DejaVuSans-433" x="479.492188"/>
     <use xlink:href="#DejaVuSans-440" x="532.03125"/>
     <use xlink:href="#DejaVuSans-443" x="595.507812"/>
     <use xlink:href="#DejaVuSans-437" x="654.6875"/>
     <use xlink:href="#DejaVuSans-43a" x="707.861328"/>
     <use xlink:href="#DejaVuSans-43e" x="768.261719"/>
     <use xlink:href="#DejaVuSans-439" x="829.443359"/>
    </g>
   </g>
   <g id="legend_1">
    <g id="patch_7">
     <path d="M 273.173125 108.1845 
L 407.72 108.1845 
Q 409.72 108.1845 409.72 106.1845 
L 409.72 48.472 
Q 409.72 46.472 407.72 46.472 
L 273.173125 46.472 
Q 271.173125 46.472 271.173125 48.472 
L 271.173125 106.1845 
Q 271.173125 108.1845 273.173125 108.1845 
z
" style="fill: #ffffff; opacity: 0.8; stroke: #cccccc; stroke-linejoin: miter"/>
    </g>
    <g id="line2d_119">
     <path d="M 275.173125 54.570438 
L 285.173125 54.570438 
L 295.173125 54.570438 
" style="fill: none; stroke: #ffa500; stroke-width: 1.5; stroke-linecap: square"/>
    </g>
    <g id="text_20">
     <!-- Измерения -->
     <g transform="translate(303.173125 58.070438) scale(0.1 -0.1)">
      <defs>
       <path id="DejaVuSans-418" d="M 4159 4666 
L 4159 0 
L 3547 0 
L 3547 3903 
L 1478 0 
L 628 0 
L 628 4666 
L 1241 4666 
L 1241 763 
L 3309 4666 
L 4159 4666 
z
" transform="scale(0.015625)"/>
      </defs>
      <use xlink:href="#DejaVuSans-418"/>
      <use xlink:href="#DejaVuSans-437" x="74.804688"/>
      <use xlink:href="#DejaVuSans-43c" x="127.978516"/>
      <use xlink:href="#DejaVuSans-435" x="203.417969"/>
      <use xlink:href="#DejaVuSans-440" x="264.941406"/>
      <use xlink:href="#DejaVuSans-435" x="328.417969"/>
      <use xlink:href="#DejaVuSans-43d" x="389.941406"/>
      <use xlink:href="#DejaVuSans-438" x="455.322266"/>
      <use xlink:href="#DejaVuSans-44f" x="520.3125"/>
     </g>
    </g>
    <g id="PathCollection_3">
     <g>
      <use xlink:href="#m2354c1631a" x="285.173125" y="70.123563" style="fill: #0000ff; stroke: #0000ff"/>
     </g>
    </g>
    <g id="text_21">
     <!-- Систолическое 125 -->
     <g transform="translate(303.173125 72.748563) scale(0.1 -0.1)">
      <use xlink:href="#DejaVuSans-421"/>
      <use xlink:href="#DejaVuSans-438" x="69.824219"/>
      <use xlink:href="#DejaVuSans-441" x="134.814453"/>
      <use xlink:href="#DejaVuSans-442" x="189.794922"/>
      <use xlink:href="#DejaVuSans-43e" x="248.046875"/>
      <use xlink:href="#DejaVuSans-43b" x="309.228516"/>
      <use xlink:href="#DejaVuSans-438" x="373.144531"/>
      <use xlink:href="#DejaVuSans-447" x="438.134766"/>
      <use xlink:href="#DejaVuSans-435" x="497.216797"/>
      <use xlink:href="#DejaVuSans-441" x="558.740234"/>
      <use xlink:href="#DejaVuSans-43a" x="613.720703"/>
      <use xlink:href="#DejaVuSans-43e" x="674.121094"/>
      <use xlink:href="#DejaVuSans-435" x="735.302734"/>
      <use xlink:href="#DejaVuSans-20" x="796.826172"/>
      <use xlink:href="#DejaVuSans-31" x="828.613281"/>
      <use xlink:href="#DejaVuSans-32" x="892.236328"/>
      <use xlink:href="#DejaVuSans-35" x="955.859375"/>
     </g>
    </g>
    <g id="PathCollection_4">
     <g>
      <use xlink:href="#meffc613ff7" x="285.173125" y="84.801688" style="stroke: #000000"/>
     </g>
    </g>
    <g id="text_22">
     <!-- Диастолическое 57 -->
     <g transform="translate(303.173125 87.426688) scale(0.1 -0.1)">
      <defs>
       <path id="DejaVuSans-37" d="M 525 4666 
L 3525 4666 
L 3525 4397 
L 1831 0 
L 1172 0 
L 2766 4134 
L 525 4134 
L 525 4666 
z
" transform="scale(0.015625)"/>
      </defs>
      <use xlink:href="#DejaVuSans-414"/>
      <use xlink:href="#DejaVuSans-438" x="78.125"/>
      <use xlink:href="#DejaVuSans-430" x="143.115234"/>
      <use xlink:href="#DejaVuSans-441" x="204.394531"/>
      <use xlink:href="#DejaVuSans-442" x="259.375"/>
      <use xlink:href="#DejaVuSans-43e" x="317.626953"/>
      <use xlink:href="#DejaVuSans-43b" x="378.808594"/>
      <use xlink:href="#DejaVuSans-438" x="442.724609"/>
      <use xlink:href="#DejaVuSans-447" x="507.714844"/>
      <use xlink:href="#DejaVuSans-435" x="566.796875"/>
      <use xlink:href="#DejaVuSans-441" x="628.320312"/>
      <use xlink:href="#DejaVuSans-43a" x="683.300781"/>
      <use xlink:href="#DejaVuSans-43e" x="743.701172"/>
      <use xlink:href="#DejaVuSans-435" x="804.882812"/>
      <use xlink:href="#DejaVuSans-20" x="866.40625"/>
      <use xlink:href="#DejaVuSans-35" x="898.193359"/>
      <use xlink:href="#DejaVuSans-37" x="961.816406"/>
     </g>
    </g>
    <g id="line2d_120">
     <path d="M 275.173125 98.604813 
L 285.173125 98.604813 
L 295.173125 98.604813 
" style="fill: none; stroke: #ff0000; stroke-width: 1.5; stroke-linecap: square"/>
    </g>
    <g id="text_23">
     <!-- Полином -->
     <g transform="translate(303.173125 102.104813) scale(0.1 -0.1)">
      <defs>
       <path id="DejaVuSans-41f" d="M 4184 4666 
L 4184 0 
L 3553 0 
L 3553 4134 
L 1259 4134 
L 1259 0 
L 628 0 
L 628 4666 
L 4184 4666 
z
" transform="scale(0.015625)"/>
      </defs>
      <use xlink:href="#DejaVuSans-41f"/>
      <use xlink:href="#DejaVuSans-43e" x="75.195312"/>
      <use xlink:href="#DejaVuSans-43b" x="136.376953"/>
      <use xlink:href="#DejaVuSans-438" x="200.292969"/>
      <use xlink:href="#DejaVuSans-43d" x="265.283203"/>
      <use xlink:href="#DejaVuSans-43e" x="330.664062"/>
      <use xlink:href="#DejaVuSans-43c" x="391.845703"/>
     </g>
    </g>
   </g>
  </g>
 </g>
 <defs>
  <clipPath id="pde149e5ce6">
   <rect x="57.6" y="41.472" width="357.12" height="266.112"/>
  </clipPath>
 </defs>
</svg>
