<?xml version="1.0" encoding="utf-8" standalone="no"?>
<!DOCTYPE svg PUBLIC "-//W3C//DTD SVG 1.1//EN"
  "http://www.w3.org/Graphics/SVG/1.1/DTD/svg11.dtd">
<svg xmlns:xlink="http://www.w3.org/1999/xlink" width="460.8pt" height="345.6pt" viewBox="0 0 460.8 345.6" xmlns="http://www.w3.org/2000/svg" version="1.1">
 <metadata>
  <rdf:RDF xmlns:dc="http://purl.org/dc/elements/1.1/" xmlns:cc="http://creativecommons.org/ns#" xmlns:rdf="http://www.w3.org/1999/02/22-rdf-syntax-ns#">
   <cc:Work>
    <dc:type rdf:resource="http://purl.org/dc/dcmitype/StillImage"/>
    <dc:date>2023-11-25T15:56:48.373071</dc:date>
    <dc:format>image/svg+xml</dc:format>
    <dc:creator>
     <cc:Agent>
      <dc:title>Matplotlib v3.7.0, https://matplotlib.org/</dc:title>
     </cc:Agent>
    </dc:creator>
   </cc:Work>
  </rdf:RDF>
 </metadata>
 <defs>
  <style type="text/css">*{stroke-linejoin: round; stroke-linecap: butt}</style>
 </defs>
 <g id="figure_1">
  <g id="patch_1">
   <path d="M 0 345.6 
L 460.8 345.6 
L 460.8 0 
L 0 0 
z
" style="fill: #ffffff"/>
  </g>
  <g id="axes_1">
   <g id="patch_2">
    <path d="M 57.6 307.584 
L 414.72 307.584 
L 414.72 41.472 
L 57.6 41.472 
z
" style="fill: #ffffff"/>
   </g>
   <g id="matplotlib.axis_1">
    <g id="xtick_1">
     <g id="line2d_1">
      <path d="M 57.6 307.584 
L 57.6 41.472 
" clip-path="url(#p31cbc5dc73)" style="fill: none; stroke: #808080; stroke-width: 0.5; stroke-linecap: square"/>
     </g>
     <g id="line2d_2">
      <defs>
       <path id="m0e87a0aaf0" d="M 0 0 
L 0 3.5 
" style="stroke: #000000; stroke-width: 0.8"/>
      </defs>
      <g>
       <use xlink:href="#m0e87a0aaf0" x="57.6" y="307.584" style="stroke: #000000; stroke-width: 0.8"/>
      </g>
     </g>
     <g id="text_1">
      <!-- 0 -->
      <g transform="translate(54.41875 322.182437) scale(0.1 -0.1)">
       <defs>
        <path id="DejaVuSans-30" d="M 2034 4250 
Q 1547 4250 1301 3770 
Q 1056 3291 1056 2328 
Q 1056 1369 1301 889 
Q 1547 409 2034 409 
Q 2525 409 2770 889 
Q 3016 1369 3016 2328 
Q 3016 3291 2770 3770 
Q 2525 4250 2034 4250 
z
M 2034 4750 
Q 2819 4750 3233 4129 
Q 3647 3509 3647 2328 
Q 3647 1150 3233 529 
Q 2819 -91 2034 -91 
Q 1250 -91 836 529 
Q 422 1150 422 2328 
Q 422 3509 836 4129 
Q 1250 4750 2034 4750 
z
" transform="scale(0.015625)"/>
       </defs>
       <use xlink:href="#DejaVuSans-30"/>
      </g>
     </g>
    </g>
    <g id="xtick_2">
     <g id="line2d_3">
      <path d="M 117.12 307.584 
L 117.12 41.472 
" clip-path="url(#p31cbc5dc73)" style="fill: none; stroke: #808080; stroke-width: 0.5; stroke-linecap: square"/>
     </g>
     <g id="line2d_4">
      <g>
       <use xlink:href="#m0e87a0aaf0" x="117.12" y="307.584" style="stroke: #000000; stroke-width: 0.8"/>
      </g>
     </g>
     <g id="text_2">
      <!-- 10 -->
      <g transform="translate(110.7575 322.182437) scale(0.1 -0.1)">
       <defs>
        <path id="DejaVuSans-31" d="M 794 531 
L 1825 531 
L 1825 4091 
L 703 3866 
L 703 4441 
L 1819 4666 
L 2450 4666 
L 2450 531 
L 3481 531 
L 3481 0 
L 794 0 
L 794 531 
z
" transform="scale(0.015625)"/>
       </defs>
       <use xlink:href="#DejaVuSans-31"/>
       <use xlink:href="#DejaVuSans-30" x="63.623047"/>
      </g>
     </g>
    </g>
    <g id="xtick_3">
     <g id="line2d_5">
      <path d="M 176.64 307.584 
L 176.64 41.472 
" clip-path="url(#p31cbc5dc73)" style="fill: none; stroke: #808080; stroke-width: 0.5; stroke-linecap: square"/>
     </g>
     <g id="line2d_6">
      <g>
       <use xlink:href="#m0e87a0aaf0" x="176.64" y="307.584" style="stroke: #000000; stroke-width: 0.8"/>
      </g>
     </g>
     <g id="text_3">
      <!-- 20 -->
      <g transform="translate(170.2775 322.182437) scale(0.1 -0.1)">
       <defs>
        <path id="DejaVuSans-32" d="M 1228 531 
L 3431 531 
L 3431 0 
L 469 0 
L 469 531 
Q 828 903 1448 1529 
Q 2069 2156 2228 2338 
Q 2531 2678 2651 2914 
Q 2772 3150 2772 3378 
Q 2772 3750 2511 3984 
Q 2250 4219 1831 4219 
Q 1534 4219 1204 4116 
Q 875 4013 500 3803 
L 500 4441 
Q 881 4594 1212 4672 
Q 1544 4750 1819 4750 
Q 2544 4750 2975 4387 
Q 3406 4025 3406 3419 
Q 3406 3131 3298 2873 
Q 3191 2616 2906 2266 
Q 2828 2175 2409 1742 
Q 1991 1309 1228 531 
z
" transform="scale(0.015625)"/>
       </defs>
       <use xlink:href="#DejaVuSans-32"/>
       <use xlink:href="#DejaVuSans-30" x="63.623047"/>
      </g>
     </g>
    </g>
    <g id="xtick_4">
     <g id="line2d_7">
      <path d="M 236.16 307.584 
L 236.16 41.472 
" clip-path="url(#p31cbc5dc73)" style="fill: none; stroke: #808080; stroke-width: 0.5; stroke-linecap: square"/>
     </g>
     <g id="line2d_8">
      <g>
       <use xlink:href="#m0e87a0aaf0" x="236.16" y="307.584" style="stroke: #000000; stroke-width: 0.8"/>
      </g>
     </g>
     <g id="text_4">
      <!-- 30 -->
      <g transform="translate(229.7975 322.182437) scale(0.1 -0.1)">
       <defs>
        <path id="DejaVuSans-33" d="M 2597 2516 
Q 3050 2419 3304 2112 
Q 3559 1806 3559 1356 
Q 3559 666 3084 287 
Q 2609 -91 1734 -91 
Q 1441 -91 1130 -33 
Q 819 25 488 141 
L 488 750 
Q 750 597 1062 519 
Q 1375 441 1716 441 
Q 2309 441 2620 675 
Q 2931 909 2931 1356 
Q 2931 1769 2642 2001 
Q 2353 2234 1838 2234 
L 1294 2234 
L 1294 2753 
L 1863 2753 
Q 2328 2753 2575 2939 
Q 2822 3125 2822 3475 
Q 2822 3834 2567 4026 
Q 2313 4219 1838 4219 
Q 1578 4219 1281 4162 
Q 984 4106 628 3988 
L 628 4550 
Q 988 4650 1302 4700 
Q 1616 4750 1894 4750 
Q 2613 4750 3031 4423 
Q 3450 4097 3450 3541 
Q 3450 3153 3228 2886 
Q 3006 2619 2597 2516 
z
" transform="scale(0.015625)"/>
       </defs>
       <use xlink:href="#DejaVuSans-33"/>
       <use xlink:href="#DejaVuSans-30" x="63.623047"/>
      </g>
     </g>
    </g>
    <g id="xtick_5">
     <g id="line2d_9">
      <path d="M 295.68 307.584 
L 295.68 41.472 
" clip-path="url(#p31cbc5dc73)" style="fill: none; stroke: #808080; stroke-width: 0.5; stroke-linecap: square"/>
     </g>
     <g id="line2d_10">
      <g>
       <use xlink:href="#m0e87a0aaf0" x="295.68" y="307.584" style="stroke: #000000; stroke-width: 0.8"/>
      </g>
     </g>
     <g id="text_5">
      <!-- 40 -->
      <g transform="translate(289.3175 322.182437) scale(0.1 -0.1)">
       <defs>
        <path id="DejaVuSans-34" d="M 2419 4116 
L 825 1625 
L 2419 1625 
L 2419 4116 
z
M 2253 4666 
L 3047 4666 
L 3047 1625 
L 3713 1625 
L 3713 1100 
L 3047 1100 
L 3047 0 
L 2419 0 
L 2419 1100 
L 313 1100 
L 313 1709 
L 2253 4666 
z
" transform="scale(0.015625)"/>
       </defs>
       <use xlink:href="#DejaVuSans-34"/>
       <use xlink:href="#DejaVuSans-30" x="63.623047"/>
      </g>
     </g>
    </g>
    <g id="xtick_6">
     <g id="line2d_11">
      <path d="M 355.2 307.584 
L 355.2 41.472 
" clip-path="url(#p31cbc5dc73)" style="fill: none; stroke: #808080; stroke-width: 0.5; stroke-linecap: square"/>
     </g>
     <g id="line2d_12">
      <g>
       <use xlink:href="#m0e87a0aaf0" x="355.2" y="307.584" style="stroke: #000000; stroke-width: 0.8"/>
      </g>
     </g>
     <g id="text_6">
      <!-- 50 -->
      <g transform="translate(348.8375 322.182437) scale(0.1 -0.1)">
       <defs>
        <path id="DejaVuSans-35" d="M 691 4666 
L 3169 4666 
L 3169 4134 
L 1269 4134 
L 1269 2991 
Q 1406 3038 1543 3061 
Q 1681 3084 1819 3084 
Q 2600 3084 3056 2656 
Q 3513 2228 3513 1497 
Q 3513 744 3044 326 
Q 2575 -91 1722 -91 
Q 1428 -91 1123 -41 
Q 819 9 494 109 
L 494 744 
Q 775 591 1075 516 
Q 1375 441 1709 441 
Q 2250 441 2565 725 
Q 2881 1009 2881 1497 
Q 2881 1984 2565 2268 
Q 2250 2553 1709 2553 
Q 1456 2553 1204 2497 
Q 953 2441 691 2322 
L 691 4666 
z
" transform="scale(0.015625)"/>
       </defs>
       <use xlink:href="#DejaVuSans-35"/>
       <use xlink:href="#DejaVuSans-30" x="63.623047"/>
      </g>
     </g>
    </g>
    <g id="xtick_7">
     <g id="line2d_13">
      <path d="M 414.72 307.584 
L 414.72 41.472 
" clip-path="url(#p31cbc5dc73)" style="fill: none; stroke: #808080; stroke-width: 0.5; stroke-linecap: square"/>
     </g>
     <g id="line2d_14">
      <g>
       <use xlink:href="#m0e87a0aaf0" x="414.72" y="307.584" style="stroke: #000000; stroke-width: 0.8"/>
      </g>
     </g>
     <g id="text_7">
      <!-- 60 -->
      <g transform="translate(408.3575 322.182437) scale(0.1 -0.1)">
       <defs>
        <path id="DejaVuSans-36" d="M 2113 2584 
Q 1688 2584 1439 2293 
Q 1191 2003 1191 1497 
Q 1191 994 1439 701 
Q 1688 409 2113 409 
Q 2538 409 2786 701 
Q 3034 994 3034 1497 
Q 3034 2003 2786 2293 
Q 2538 2584 2113 2584 
z
M 3366 4563 
L 3366 3988 
Q 3128 4100 2886 4159 
Q 2644 4219 2406 4219 
Q 1781 4219 1451 3797 
Q 1122 3375 1075 2522 
Q 1259 2794 1537 2939 
Q 1816 3084 2150 3084 
Q 2853 3084 3261 2657 
Q 3669 2231 3669 1497 
Q 3669 778 3244 343 
Q 2819 -91 2113 -91 
Q 1303 -91 875 529 
Q 447 1150 447 2328 
Q 447 3434 972 4092 
Q 1497 4750 2381 4750 
Q 2619 4750 2861 4703 
Q 3103 4656 3366 4563 
z
" transform="scale(0.015625)"/>
       </defs>
       <use xlink:href="#DejaVuSans-36"/>
       <use xlink:href="#DejaVuSans-30" x="63.623047"/>
      </g>
     </g>
    </g>
    <g id="xtick_8">
     <g id="line2d_15">
      <path d="M 69.504 307.584 
L 69.504 41.472 
" clip-path="url(#p31cbc5dc73)" style="fill: none; stroke-dasharray: 0.8,1.32; stroke-dashoffset: 0; stroke: #696969; stroke-width: 0.8"/>
     </g>
     <g id="line2d_16">
      <defs>
       <path id="m47e1dd7cf4" d="M 0 0 
L 0 2 
" style="stroke: #000000; stroke-width: 0.6"/>
      </defs>
      <g>
       <use xlink:href="#m47e1dd7cf4" x="69.504" y="307.584" style="stroke: #000000; stroke-width: 0.6"/>
      </g>
     </g>
    </g>
    <g id="xtick_9">
     <g id="line2d_17">
      <path d="M 81.408 307.584 
L 81.408 41.472 
" clip-path="url(#p31cbc5dc73)" style="fill: none; stroke-dasharray: 0.8,1.32; stroke-dashoffset: 0; stroke: #696969; stroke-width: 0.8"/>
     </g>
     <g id="line2d_18">
      <g>
       <use xlink:href="#m47e1dd7cf4" x="81.408" y="307.584" style="stroke: #000000; stroke-width: 0.6"/>
      </g>
     </g>
    </g>
    <g id="xtick_10">
     <g id="line2d_19">
      <path d="M 93.312 307.584 
L 93.312 41.472 
" clip-path="url(#p31cbc5dc73)" style="fill: none; stroke-dasharray: 0.8,1.32; stroke-dashoffset: 0; stroke: #696969; stroke-width: 0.8"/>
     </g>
     <g id="line2d_20">
      <g>
       <use xlink:href="#m47e1dd7cf4" x="93.312" y="307.584" style="stroke: #000000; stroke-width: 0.6"/>
      </g>
     </g>
    </g>
    <g id="xtick_11">
     <g id="line2d_21">
      <path d="M 105.216 307.584 
L 105.216 41.472 
" clip-path="url(#p31cbc5dc73)" style="fill: none; stroke-dasharray: 0.8,1.32; stroke-dashoffset: 0; stroke: #696969; stroke-width: 0.8"/>
     </g>
     <g id="line2d_22">
      <g>
       <use xlink:href="#m47e1dd7cf4" x="105.216" y="307.584" style="stroke: #000000; stroke-width: 0.6"/>
      </g>
     </g>
    </g>
    <g id="xtick_12">
     <g id="line2d_23">
      <path d="M 129.024 307.584 
L 129.024 41.472 
" clip-path="url(#p31cbc5dc73)" style="fill: none; stroke-dasharray: 0.8,1.32; stroke-dashoffset: 0; stroke: #696969; stroke-width: 0.8"/>
     </g>
     <g id="line2d_24">
      <g>
       <use xlink:href="#m47e1dd7cf4" x="129.024" y="307.584" style="stroke: #000000; stroke-width: 0.6"/>
      </g>
     </g>
    </g>
    <g id="xtick_13">
     <g id="line2d_25">
      <path d="M 140.928 307.584 
L 140.928 41.472 
" clip-path="url(#p31cbc5dc73)" style="fill: none; stroke-dasharray: 0.8,1.32; stroke-dashoffset: 0; stroke: #696969; stroke-width: 0.8"/>
     </g>
     <g id="line2d_26">
      <g>
       <use xlink:href="#m47e1dd7cf4" x="140.928" y="307.584" style="stroke: #000000; stroke-width: 0.6"/>
      </g>
     </g>
    </g>
    <g id="xtick_14">
     <g id="line2d_27">
      <path d="M 152.832 307.584 
L 152.832 41.472 
" clip-path="url(#p31cbc5dc73)" style="fill: none; stroke-dasharray: 0.8,1.32; stroke-dashoffset: 0; stroke: #696969; stroke-width: 0.8"/>
     </g>
     <g id="line2d_28">
      <g>
       <use xlink:href="#m47e1dd7cf4" x="152.832" y="307.584" style="stroke: #000000; stroke-width: 0.6"/>
      </g>
     </g>
    </g>
    <g id="xtick_15">
     <g id="line2d_29">
      <path d="M 164.736 307.584 
L 164.736 41.472 
" clip-path="url(#p31cbc5dc73)" style="fill: none; stroke-dasharray: 0.8,1.32; stroke-dashoffset: 0; stroke: #696969; stroke-width: 0.8"/>
     </g>
     <g id="line2d_30">
      <g>
       <use xlink:href="#m47e1dd7cf4" x="164.736" y="307.584" style="stroke: #000000; stroke-width: 0.6"/>
      </g>
     </g>
    </g>
    <g id="xtick_16">
     <g id="line2d_31">
      <path d="M 188.544 307.584 
L 188.544 41.472 
" clip-path="url(#p31cbc5dc73)" style="fill: none; stroke-dasharray: 0.8,1.32; stroke-dashoffset: 0; stroke: #696969; stroke-width: 0.8"/>
     </g>
     <g id="line2d_32">
      <g>
       <use xlink:href="#m47e1dd7cf4" x="188.544" y="307.584" style="stroke: #000000; stroke-width: 0.6"/>
      </g>
     </g>
    </g>
    <g id="xtick_17">
     <g id="line2d_33">
      <path d="M 200.448 307.584 
L 200.448 41.472 
" clip-path="url(#p31cbc5dc73)" style="fill: none; stroke-dasharray: 0.8,1.32; stroke-dashoffset: 0; stroke: #696969; stroke-width: 0.8"/>
     </g>
     <g id="line2d_34">
      <g>
       <use xlink:href="#m47e1dd7cf4" x="200.448" y="307.584" style="stroke: #000000; stroke-width: 0.6"/>
      </g>
     </g>
    </g>
    <g id="xtick_18">
     <g id="line2d_35">
      <path d="M 212.352 307.584 
L 212.352 41.472 
" clip-path="url(#p31cbc5dc73)" style="fill: none; stroke-dasharray: 0.8,1.32; stroke-dashoffset: 0; stroke: #696969; stroke-width: 0.8"/>
     </g>
     <g id="line2d_36">
      <g>
       <use xlink:href="#m47e1dd7cf4" x="212.352" y="307.584" style="stroke: #000000; stroke-width: 0.6"/>
      </g>
     </g>
    </g>
    <g id="xtick_19">
     <g id="line2d_37">
      <path d="M 224.256 307.584 
L 224.256 41.472 
" clip-path="url(#p31cbc5dc73)" style="fill: none; stroke-dasharray: 0.8,1.32; stroke-dashoffset: 0; stroke: #696969; stroke-width: 0.8"/>
     </g>
     <g id="line2d_38">
      <g>
       <use xlink:href="#m47e1dd7cf4" x="224.256" y="307.584" style="stroke: #000000; stroke-width: 0.6"/>
      </g>
     </g>
    </g>
    <g id="xtick_20">
     <g id="line2d_39">
      <path d="M 248.064 307.584 
L 248.064 41.472 
" clip-path="url(#p31cbc5dc73)" style="fill: none; stroke-dasharray: 0.8,1.32; stroke-dashoffset: 0; stroke: #696969; stroke-width: 0.8"/>
     </g>
     <g id="line2d_40">
      <g>
       <use xlink:href="#m47e1dd7cf4" x="248.064" y="307.584" style="stroke: #000000; stroke-width: 0.6"/>
      </g>
     </g>
    </g>
    <g id="xtick_21">
     <g id="line2d_41">
      <path d="M 259.968 307.584 
L 259.968 41.472 
" clip-path="url(#p31cbc5dc73)" style="fill: none; stroke-dasharray: 0.8,1.32; stroke-dashoffset: 0; stroke: #696969; stroke-width: 0.8"/>
     </g>
     <g id="line2d_42">
      <g>
       <use xlink:href="#m47e1dd7cf4" x="259.968" y="307.584" style="stroke: #000000; stroke-width: 0.6"/>
      </g>
     </g>
    </g>
    <g id="xtick_22">
     <g id="line2d_43">
      <path d="M 271.872 307.584 
L 271.872 41.472 
" clip-path="url(#p31cbc5dc73)" style="fill: none; stroke-dasharray: 0.8,1.32; stroke-dashoffset: 0; stroke: #696969; stroke-width: 0.8"/>
     </g>
     <g id="line2d_44">
      <g>
       <use xlink:href="#m47e1dd7cf4" x="271.872" y="307.584" style="stroke: #000000; stroke-width: 0.6"/>
      </g>
     </g>
    </g>
    <g id="xtick_23">
     <g id="line2d_45">
      <path d="M 283.776 307.584 
L 283.776 41.472 
" clip-path="url(#p31cbc5dc73)" style="fill: none; stroke-dasharray: 0.8,1.32; stroke-dashoffset: 0; stroke: #696969; stroke-width: 0.8"/>
     </g>
     <g id="line2d_46">
      <g>
       <use xlink:href="#m47e1dd7cf4" x="283.776" y="307.584" style="stroke: #000000; stroke-width: 0.6"/>
      </g>
     </g>
    </g>
    <g id="xtick_24">
     <g id="line2d_47">
      <path d="M 307.584 307.584 
L 307.584 41.472 
" clip-path="url(#p31cbc5dc73)" style="fill: none; stroke-dasharray: 0.8,1.32; stroke-dashoffset: 0; stroke: #696969; stroke-width: 0.8"/>
     </g>
     <g id="line2d_48">
      <g>
       <use xlink:href="#m47e1dd7cf4" x="307.584" y="307.584" style="stroke: #000000; stroke-width: 0.6"/>
      </g>
     </g>
    </g>
    <g id="xtick_25">
     <g id="line2d_49">
      <path d="M 319.488 307.584 
L 319.488 41.472 
" clip-path="url(#p31cbc5dc73)" style="fill: none; stroke-dasharray: 0.8,1.32; stroke-dashoffset: 0; stroke: #696969; stroke-width: 0.8"/>
     </g>
     <g id="line2d_50">
      <g>
       <use xlink:href="#m47e1dd7cf4" x="319.488" y="307.584" style="stroke: #000000; stroke-width: 0.6"/>
      </g>
     </g>
    </g>
    <g id="xtick_26">
     <g id="line2d_51">
      <path d="M 331.392 307.584 
L 331.392 41.472 
" clip-path="url(#p31cbc5dc73)" style="fill: none; stroke-dasharray: 0.8,1.32; stroke-dashoffset: 0; stroke: #696969; stroke-width: 0.8"/>
     </g>
     <g id="line2d_52">
      <g>
       <use xlink:href="#m47e1dd7cf4" x="331.392" y="307.584" style="stroke: #000000; stroke-width: 0.6"/>
      </g>
     </g>
    </g>
    <g id="xtick_27">
     <g id="line2d_53">
      <path d="M 343.296 307.584 
L 343.296 41.472 
" clip-path="url(#p31cbc5dc73)" style="fill: none; stroke-dasharray: 0.8,1.32; stroke-dashoffset: 0; stroke: #696969; stroke-width: 0.8"/>
     </g>
     <g id="line2d_54">
      <g>
       <use xlink:href="#m47e1dd7cf4" x="343.296" y="307.584" style="stroke: #000000; stroke-width: 0.6"/>
      </g>
     </g>
    </g>
    <g id="xtick_28">
     <g id="line2d_55">
      <path d="M 367.104 307.584 
L 367.104 41.472 
" clip-path="url(#p31cbc5dc73)" style="fill: none; stroke-dasharray: 0.8,1.32; stroke-dashoffset: 0; stroke: #696969; stroke-width: 0.8"/>
     </g>
     <g id="line2d_56">
      <g>
       <use xlink:href="#m47e1dd7cf4" x="367.104" y="307.584" style="stroke: #000000; stroke-width: 0.6"/>
      </g>
     </g>
    </g>
    <g id="xtick_29">
     <g id="line2d_57">
      <path d="M 379.008 307.584 
L 379.008 41.472 
" clip-path="url(#p31cbc5dc73)" style="fill: none; stroke-dasharray: 0.8,1.32; stroke-dashoffset: 0; stroke: #696969; stroke-width: 0.8"/>
     </g>
     <g id="line2d_58">
      <g>
       <use xlink:href="#m47e1dd7cf4" x="379.008" y="307.584" style="stroke: #000000; stroke-width: 0.6"/>
      </g>
     </g>
    </g>
    <g id="xtick_30">
     <g id="line2d_59">
      <path d="M 390.912 307.584 
L 390.912 41.472 
" clip-path="url(#p31cbc5dc73)" style="fill: none; stroke-dasharray: 0.8,1.32; stroke-dashoffset: 0; stroke: #696969; stroke-width: 0.8"/>
     </g>
     <g id="line2d_60">
      <g>
       <use xlink:href="#m47e1dd7cf4" x="390.912" y="307.584" style="stroke: #000000; stroke-width: 0.6"/>
      </g>
     </g>
    </g>
    <g id="xtick_31">
     <g id="line2d_61">
      <path d="M 402.816 307.584 
L 402.816 41.472 
" clip-path="url(#p31cbc5dc73)" style="fill: none; stroke-dasharray: 0.8,1.32; stroke-dashoffset: 0; stroke: #696969; stroke-width: 0.8"/>
     </g>
     <g id="line2d_62">
      <g>
       <use xlink:href="#m47e1dd7cf4" x="402.816" y="307.584" style="stroke: #000000; stroke-width: 0.6"/>
      </g>
     </g>
    </g>
    <g id="text_8">
     <!-- Время [с] -->
     <g transform="translate(206.519062 337.38025) scale(0.12 -0.12)">
      <defs>
       <path id="DejaVuSans-412" d="M 1259 2228 
L 1259 519 
L 2272 519 
Q 2781 519 3026 730 
Q 3272 941 3272 1375 
Q 3272 1813 3026 2020 
Q 2781 2228 2272 2228 
L 1259 2228 
z
M 1259 4147 
L 1259 2741 
L 2194 2741 
Q 2656 2741 2882 2914 
Q 3109 3088 3109 3444 
Q 3109 3797 2882 3972 
Q 2656 4147 2194 4147 
L 1259 4147 
z
M 628 4666 
L 2241 4666 
Q 2963 4666 3353 4366 
Q 3744 4066 3744 3513 
Q 3744 3084 3544 2831 
Q 3344 2578 2956 2516 
Q 3422 2416 3680 2098 
Q 3938 1781 3938 1306 
Q 3938 681 3513 340 
Q 3088 0 2303 0 
L 628 0 
L 628 4666 
z
" transform="scale(0.015625)"/>
       <path id="DejaVuSans-440" d="M 1159 525 
L 1159 -1331 
L 581 -1331 
L 581 3500 
L 1159 3500 
L 1159 2969 
Q 1341 3281 1617 3432 
Q 1894 3584 2278 3584 
Q 2916 3584 3314 3078 
Q 3713 2572 3713 1747 
Q 3713 922 3314 415 
Q 2916 -91 2278 -91 
Q 1894 -91 1617 61 
Q 1341 213 1159 525 
z
M 3116 1747 
Q 3116 2381 2855 2742 
Q 2594 3103 2138 3103 
Q 1681 3103 1420 2742 
Q 1159 2381 1159 1747 
Q 1159 1113 1420 752 
Q 1681 391 2138 391 
Q 2594 391 2855 752 
Q 3116 1113 3116 1747 
z
" transform="scale(0.015625)"/>
       <path id="DejaVuSans-435" d="M 3597 1894 
L 3597 1613 
L 953 1613 
Q 991 1019 1311 708 
Q 1631 397 2203 397 
Q 2534 397 2845 478 
Q 3156 559 3463 722 
L 3463 178 
Q 3153 47 2828 -22 
Q 2503 -91 2169 -91 
Q 1331 -91 842 396 
Q 353 884 353 1716 
Q 353 2575 817 3079 
Q 1281 3584 2069 3584 
Q 2775 3584 3186 3129 
Q 3597 2675 3597 1894 
z
M 3022 2063 
Q 3016 2534 2758 2815 
Q 2500 3097 2075 3097 
Q 1594 3097 1305 2825 
Q 1016 2553 972 2059 
L 3022 2063 
z
" transform="scale(0.015625)"/>
       <path id="DejaVuSans-43c" d="M 581 3500 
L 1422 3500 
L 2416 1156 
L 3413 3500 
L 4247 3500 
L 4247 0 
L 3669 0 
L 3669 2950 
L 2703 672 
L 2128 672 
L 1159 2950 
L 1159 0 
L 581 0 
L 581 3500 
z
" transform="scale(0.015625)"/>
       <path id="DejaVuSans-44f" d="M 1181 2491 
Q 1181 2231 1381 2084 
Q 1581 1938 1953 1938 
L 2728 1938 
L 2728 3041 
L 1953 3041 
Q 1581 3041 1381 2897 
Q 1181 2753 1181 2491 
z
M 363 0 
L 1431 1534 
Q 1069 1616 828 1830 
Q 588 2044 588 2491 
Q 588 2997 923 3248 
Q 1259 3500 1938 3500 
L 3306 3500 
L 3306 0 
L 2728 0 
L 2728 1478 
L 2013 1478 
L 981 0 
L 363 0 
z
" transform="scale(0.015625)"/>
       <path id="DejaVuSans-20" transform="scale(0.015625)"/>
       <path id="DejaVuSans-5b" d="M 550 4863 
L 1875 4863 
L 1875 4416 
L 1125 4416 
L 1125 -397 
L 1875 -397 
L 1875 -844 
L 550 -844 
L 550 4863 
z
" transform="scale(0.015625)"/>
       <path id="DejaVuSans-441" d="M 3122 3366 
L 3122 2828 
Q 2878 2963 2633 3030 
Q 2388 3097 2138 3097 
Q 1578 3097 1268 2742 
Q 959 2388 959 1747 
Q 959 1106 1268 751 
Q 1578 397 2138 397 
Q 2388 397 2633 464 
Q 2878 531 3122 666 
L 3122 134 
Q 2881 22 2623 -34 
Q 2366 -91 2075 -91 
Q 1284 -91 818 406 
Q 353 903 353 1747 
Q 353 2603 823 3093 
Q 1294 3584 2113 3584 
Q 2378 3584 2631 3529 
Q 2884 3475 3122 3366 
z
" transform="scale(0.015625)"/>
       <path id="DejaVuSans-5d" d="M 1947 4863 
L 1947 -844 
L 622 -844 
L 622 -397 
L 1369 -397 
L 1369 4416 
L 622 4416 
L 622 4863 
L 1947 4863 
z
" transform="scale(0.015625)"/>
      </defs>
      <use xlink:href="#DejaVuSans-412"/>
      <use xlink:href="#DejaVuSans-440" x="68.603516"/>
      <use xlink:href="#DejaVuSans-435" x="132.080078"/>
      <use xlink:href="#DejaVuSans-43c" x="193.603516"/>
      <use xlink:href="#DejaVuSans-44f" x="269.042969"/>
      <use xlink:href="#DejaVuSans-20" x="329.199219"/>
      <use xlink:href="#DejaVuSans-5b" x="360.986328"/>
      <use xlink:href="#DejaVuSans-441" x="400"/>
      <use xlink:href="#DejaVuSans-5d" x="454.980469"/>
     </g>
    </g>
   </g>
   <g id="matplotlib.axis_2">
    <g id="ytick_1">
     <g id="line2d_63">
      <path d="M 57.6 288.576 
L 414.72 288.576 
" clip-path="url(#p31cbc5dc73)" style="fill: none; stroke: #808080; stroke-width: 0.5; stroke-linecap: square"/>
     </g>
     <g id="line2d_64">
      <defs>
       <path id="m2d8fb491a4" d="M 0 0 
L -3.5 0 
" style="stroke: #000000; stroke-width: 0.8"/>
      </defs>
      <g>
       <use xlink:href="#m2d8fb491a4" x="57.6" y="288.576" style="stroke: #000000; stroke-width: 0.8"/>
      </g>
     </g>
     <g id="text_9">
      <!-- −3 -->
      <g transform="translate(35.857813 292.375219) scale(0.1 -0.1)">
       <defs>
        <path id="DejaVuSans-2212" d="M 678 2272 
L 4684 2272 
L 4684 1741 
L 678 1741 
L 678 2272 
z
" transform="scale(0.015625)"/>
       </defs>
       <use xlink:href="#DejaVuSans-2212"/>
       <use xlink:href="#DejaVuSans-33" x="83.789062"/>
      </g>
     </g>
    </g>
    <g id="ytick_2">
     <g id="line2d_65">
      <path d="M 57.6 250.56 
L 414.72 250.56 
" clip-path="url(#p31cbc5dc73)" style="fill: none; stroke: #808080; stroke-width: 0.5; stroke-linecap: square"/>
     </g>
     <g id="line2d_66">
      <g>
       <use xlink:href="#m2d8fb491a4" x="57.6" y="250.56" style="stroke: #000000; stroke-width: 0.8"/>
      </g>
     </g>
     <g id="text_10">
      <!-- −2 -->
      <g transform="translate(35.857813 254.359219) scale(0.1 -0.1)">
       <use xlink:href="#DejaVuSans-2212"/>
       <use xlink:href="#DejaVuSans-32" x="83.789062"/>
      </g>
     </g>
    </g>
    <g id="ytick_3">
     <g id="line2d_67">
      <path d="M 57.6 212.544 
L 414.72 212.544 
" clip-path="url(#p31cbc5dc73)" style="fill: none; stroke: #808080; stroke-width: 0.5; stroke-linecap: square"/>
     </g>
     <g id="line2d_68">
      <g>
       <use xlink:href="#m2d8fb491a4" x="57.6" y="212.544" style="stroke: #000000; stroke-width: 0.8"/>
      </g>
     </g>
     <g id="text_11">
      <!-- −1 -->
      <g transform="translate(35.857813 216.343219) scale(0.1 -0.1)">
       <use xlink:href="#DejaVuSans-2212"/>
       <use xlink:href="#DejaVuSans-31" x="83.789062"/>
      </g>
     </g>
    </g>
    <g id="ytick_4">
     <g id="line2d_69">
      <path d="M 57.6 174.528 
L 414.72 174.528 
" clip-path="url(#p31cbc5dc73)" style="fill: none; stroke: #808080; stroke-width: 0.5; stroke-linecap: square"/>
     </g>
     <g id="line2d_70">
      <g>
       <use xlink:href="#m2d8fb491a4" x="57.6" y="174.528" style="stroke: #000000; stroke-width: 0.8"/>
      </g>
     </g>
     <g id="text_12">
      <!-- 0 -->
      <g transform="translate(44.2375 178.327219) scale(0.1 -0.1)">
       <use xlink:href="#DejaVuSans-30"/>
      </g>
     </g>
    </g>
    <g id="ytick_5">
     <g id="line2d_71">
      <path d="M 57.6 136.512 
L 414.72 136.512 
" clip-path="url(#p31cbc5dc73)" style="fill: none; stroke: #808080; stroke-width: 0.5; stroke-linecap: square"/>
     </g>
     <g id="line2d_72">
      <g>
       <use xlink:href="#m2d8fb491a4" x="57.6" y="136.512" style="stroke: #000000; stroke-width: 0.8"/>
      </g>
     </g>
     <g id="text_13">
      <!-- 1 -->
      <g transform="translate(44.2375 140.311219) scale(0.1 -0.1)">
       <use xlink:href="#DejaVuSans-31"/>
      </g>
     </g>
    </g>
    <g id="ytick_6">
     <g id="line2d_73">
      <path d="M 57.6 98.496 
L 414.72 98.496 
" clip-path="url(#p31cbc5dc73)" style="fill: none; stroke: #808080; stroke-width: 0.5; stroke-linecap: square"/>
     </g>
     <g id="line2d_74">
      <g>
       <use xlink:href="#m2d8fb491a4" x="57.6" y="98.496" style="stroke: #000000; stroke-width: 0.8"/>
      </g>
     </g>
     <g id="text_14">
      <!-- 2 -->
      <g transform="translate(44.2375 102.295219) scale(0.1 -0.1)">
       <use xlink:href="#DejaVuSans-32"/>
      </g>
     </g>
    </g>
    <g id="ytick_7">
     <g id="line2d_75">
      <path d="M 57.6 60.48 
L 414.72 60.48 
" clip-path="url(#p31cbc5dc73)" style="fill: none; stroke: #808080; stroke-width: 0.5; stroke-linecap: square"/>
     </g>
     <g id="line2d_76">
      <g>
       <use xlink:href="#m2d8fb491a4" x="57.6" y="60.48" style="stroke: #000000; stroke-width: 0.8"/>
      </g>
     </g>
     <g id="text_15">
      <!-- 3 -->
      <g transform="translate(44.2375 64.279219) scale(0.1 -0.1)">
       <use xlink:href="#DejaVuSans-33"/>
      </g>
     </g>
    </g>
    <g id="ytick_8">
     <g id="line2d_77">
      <path d="M 57.6 303.7824 
L 414.72 303.7824 
" clip-path="url(#p31cbc5dc73)" style="fill: none; stroke-dasharray: 0.8,1.32; stroke-dashoffset: 0; stroke: #696969; stroke-width: 0.8"/>
     </g>
     <g id="line2d_78">
      <defs>
       <path id="me989047f97" d="M 0 0 
L -2 0 
" style="stroke: #000000; stroke-width: 0.6"/>
      </defs>
      <g>
       <use xlink:href="#me989047f97" x="57.6" y="303.7824" style="stroke: #000000; stroke-width: 0.6"/>
      </g>
     </g>
    </g>
    <g id="ytick_9">
     <g id="line2d_79">
      <path d="M 57.6 296.1792 
L 414.72 296.1792 
" clip-path="url(#p31cbc5dc73)" style="fill: none; stroke-dasharray: 0.8,1.32; stroke-dashoffset: 0; stroke: #696969; stroke-width: 0.8"/>
     </g>
     <g id="line2d_80">
      <g>
       <use xlink:href="#me989047f97" x="57.6" y="296.1792" style="stroke: #000000; stroke-width: 0.6"/>
      </g>
     </g>
    </g>
    <g id="ytick_10">
     <g id="line2d_81">
      <path d="M 57.6 280.9728 
L 414.72 280.9728 
" clip-path="url(#p31cbc5dc73)" style="fill: none; stroke-dasharray: 0.8,1.32; stroke-dashoffset: 0; stroke: #696969; stroke-width: 0.8"/>
     </g>
     <g id="line2d_82">
      <g>
       <use xlink:href="#me989047f97" x="57.6" y="280.9728" style="stroke: #000000; stroke-width: 0.6"/>
      </g>
     </g>
    </g>
    <g id="ytick_11">
     <g id="line2d_83">
      <path d="M 57.6 273.3696 
L 414.72 273.3696 
" clip-path="url(#p31cbc5dc73)" style="fill: none; stroke-dasharray: 0.8,1.32; stroke-dashoffset: 0; stroke: #696969; stroke-width: 0.8"/>
     </g>
     <g id="line2d_84">
      <g>
       <use xlink:href="#me989047f97" x="57.6" y="273.3696" style="stroke: #000000; stroke-width: 0.6"/>
      </g>
     </g>
    </g>
    <g id="ytick_12">
     <g id="line2d_85">
      <path d="M 57.6 265.7664 
L 414.72 265.7664 
" clip-path="url(#p31cbc5dc73)" style="fill: none; stroke-dasharray: 0.8,1.32; stroke-dashoffset: 0; stroke: #696969; stroke-width: 0.8"/>
     </g>
     <g id="line2d_86">
      <g>
       <use xlink:href="#me989047f97" x="57.6" y="265.7664" style="stroke: #000000; stroke-width: 0.6"/>
      </g>
     </g>
    </g>
    <g id="ytick_13">
     <g id="line2d_87">
      <path d="M 57.6 258.1632 
L 414.72 258.1632 
" clip-path="url(#p31cbc5dc73)" style="fill: none; stroke-dasharray: 0.8,1.32; stroke-dashoffset: 0; stroke: #696969; stroke-width: 0.8"/>
     </g>
     <g id="line2d_88">
      <g>
       <use xlink:href="#me989047f97" x="57.6" y="258.1632" style="stroke: #000000; stroke-width: 0.6"/>
      </g>
     </g>
    </g>
    <g id="ytick_14">
     <g id="line2d_89">
      <path d="M 57.6 242.9568 
L 414.72 242.9568 
" clip-path="url(#p31cbc5dc73)" style="fill: none; stroke-dasharray: 0.8,1.32; stroke-dashoffset: 0; stroke: #696969; stroke-width: 0.8"/>
     </g>
     <g id="line2d_90">
      <g>
       <use xlink:href="#me989047f97" x="57.6" y="242.9568" style="stroke: #000000; stroke-width: 0.6"/>
      </g>
     </g>
    </g>
    <g id="ytick_15">
     <g id="line2d_91">
      <path d="M 57.6 235.3536 
L 414.72 235.3536 
" clip-path="url(#p31cbc5dc73)" style="fill: none; stroke-dasharray: 0.8,1.32; stroke-dashoffset: 0; stroke: #696969; stroke-width: 0.8"/>
     </g>
     <g id="line2d_92">
      <g>
       <use xlink:href="#me989047f97" x="57.6" y="235.3536" style="stroke: #000000; stroke-width: 0.6"/>
      </g>
     </g>
    </g>
    <g id="ytick_16">
     <g id="line2d_93">
      <path d="M 57.6 227.7504 
L 414.72 227.7504 
" clip-path="url(#p31cbc5dc73)" style="fill: none; stroke-dasharray: 0.8,1.32; stroke-dashoffset: 0; stroke: #696969; stroke-width: 0.8"/>
     </g>
     <g id="line2d_94">
      <g>
       <use xlink:href="#me989047f97" x="57.6" y="227.7504" style="stroke: #000000; stroke-width: 0.6"/>
      </g>
     </g>
    </g>
    <g id="ytick_17">
     <g id="line2d_95">
      <path d="M 57.6 220.1472 
L 414.72 220.1472 
" clip-path="url(#p31cbc5dc73)" style="fill: none; stroke-dasharray: 0.8,1.32; stroke-dashoffset: 0; stroke: #696969; stroke-width: 0.8"/>
     </g>
     <g id="line2d_96">
      <g>
       <use xlink:href="#me989047f97" x="57.6" y="220.1472" style="stroke: #000000; stroke-width: 0.6"/>
      </g>
     </g>
    </g>
    <g id="ytick_18">
     <g id="line2d_97">
      <path d="M 57.6 204.9408 
L 414.72 204.9408 
" clip-path="url(#p31cbc5dc73)" style="fill: none; stroke-dasharray: 0.8,1.32; stroke-dashoffset: 0; stroke: #696969; stroke-width: 0.8"/>
     </g>
     <g id="line2d_98">
      <g>
       <use xlink:href="#me989047f97" x="57.6" y="204.9408" style="stroke: #000000; stroke-width: 0.6"/>
      </g>
     </g>
    </g>
    <g id="ytick_19">
     <g id="line2d_99">
      <path d="M 57.6 197.3376 
L 414.72 197.3376 
" clip-path="url(#p31cbc5dc73)" style="fill: none; stroke-dasharray: 0.8,1.32; stroke-dashoffset: 0; stroke: #696969; stroke-width: 0.8"/>
     </g>
     <g id="line2d_100">
      <g>
       <use xlink:href="#me989047f97" x="57.6" y="197.3376" style="stroke: #000000; stroke-width: 0.6"/>
      </g>
     </g>
    </g>
    <g id="ytick_20">
     <g id="line2d_101">
      <path d="M 57.6 189.7344 
L 414.72 189.7344 
" clip-path="url(#p31cbc5dc73)" style="fill: none; stroke-dasharray: 0.8,1.32; stroke-dashoffset: 0; stroke: #696969; stroke-width: 0.8"/>
     </g>
     <g id="line2d_102">
      <g>
       <use xlink:href="#me989047f97" x="57.6" y="189.7344" style="stroke: #000000; stroke-width: 0.6"/>
      </g>
     </g>
    </g>
    <g id="ytick_21">
     <g id="line2d_103">
      <path d="M 57.6 182.1312 
L 414.72 182.1312 
" clip-path="url(#p31cbc5dc73)" style="fill: none; stroke-dasharray: 0.8,1.32; stroke-dashoffset: 0; stroke: #696969; stroke-width: 0.8"/>
     </g>
     <g id="line2d_104">
      <g>
       <use xlink:href="#me989047f97" x="57.6" y="182.1312" style="stroke: #000000; stroke-width: 0.6"/>
      </g>
     </g>
    </g>
    <g id="ytick_22">
     <g id="line2d_105">
      <path d="M 57.6 166.9248 
L 414.72 166.9248 
" clip-path="url(#p31cbc5dc73)" style="fill: none; stroke-dasharray: 0.8,1.32; stroke-dashoffset: 0; stroke: #696969; stroke-width: 0.8"/>
     </g>
     <g id="line2d_106">
      <g>
       <use xlink:href="#me989047f97" x="57.6" y="166.9248" style="stroke: #000000; stroke-width: 0.6"/>
      </g>
     </g>
    </g>
    <g id="ytick_23">
     <g id="line2d_107">
      <path d="M 57.6 159.3216 
L 414.72 159.3216 
" clip-path="url(#p31cbc5dc73)" style="fill: none; stroke-dasharray: 0.8,1.32; stroke-dashoffset: 0; stroke: #696969; stroke-width: 0.8"/>
     </g>
     <g id="line2d_108">
      <g>
       <use xlink:href="#me989047f97" x="57.6" y="159.3216" style="stroke: #000000; stroke-width: 0.6"/>
      </g>
     </g>
    </g>
    <g id="ytick_24">
     <g id="line2d_109">
      <path d="M 57.6 151.7184 
L 414.72 151.7184 
" clip-path="url(#p31cbc5dc73)" style="fill: none; stroke-dasharray: 0.8,1.32; stroke-dashoffset: 0; stroke: #696969; stroke-width: 0.8"/>
     </g>
     <g id="line2d_110">
      <g>
       <use xlink:href="#me989047f97" x="57.6" y="151.7184" style="stroke: #000000; stroke-width: 0.6"/>
      </g>
     </g>
    </g>
    <g id="ytick_25">
     <g id="line2d_111">
      <path d="M 57.6 144.1152 
L 414.72 144.1152 
" clip-path="url(#p31cbc5dc73)" style="fill: none; stroke-dasharray: 0.8,1.32; stroke-dashoffset: 0; stroke: #696969; stroke-width: 0.8"/>
     </g>
     <g id="line2d_112">
      <g>
       <use xlink:href="#me989047f97" x="57.6" y="144.1152" style="stroke: #000000; stroke-width: 0.6"/>
      </g>
     </g>
    </g>
    <g id="ytick_26">
     <g id="line2d_113">
      <path d="M 57.6 128.9088 
L 414.72 128.9088 
" clip-path="url(#p31cbc5dc73)" style="fill: none; stroke-dasharray: 0.8,1.32; stroke-dashoffset: 0; stroke: #696969; stroke-width: 0.8"/>
     </g>
     <g id="line2d_114">
      <g>
       <use xlink:href="#me989047f97" x="57.6" y="128.9088" style="stroke: #000000; stroke-width: 0.6"/>
      </g>
     </g>
    </g>
    <g id="ytick_27">
     <g id="line2d_115">
      <path d="M 57.6 121.3056 
L 414.72 121.3056 
" clip-path="url(#p31cbc5dc73)" style="fill: none; stroke-dasharray: 0.8,1.32; stroke-dashoffset: 0; stroke: #696969; stroke-width: 0.8"/>
     </g>
     <g id="line2d_116">
      <g>
       <use xlink:href="#me989047f97" x="57.6" y="121.3056" style="stroke: #000000; stroke-width: 0.6"/>
      </g>
     </g>
    </g>
    <g id="ytick_28">
     <g id="line2d_117">
      <path d="M 57.6 113.7024 
L 414.72 113.7024 
" clip-path="url(#p31cbc5dc73)" style="fill: none; stroke-dasharray: 0.8,1.32; stroke-dashoffset: 0; stroke: #696969; stroke-width: 0.8"/>
     </g>
     <g id="line2d_118">
      <g>
       <use xlink:href="#me989047f97" x="57.6" y="113.7024" style="stroke: #000000; stroke-width: 0.6"/>
      </g>
     </g>
    </g>
    <g id="ytick_29">
     <g id="line2d_119">
      <path d="M 57.6 106.0992 
L 414.72 106.0992 
" clip-path="url(#p31cbc5dc73)" style="fill: none; stroke-dasharray: 0.8,1.32; stroke-dashoffset: 0; stroke: #696969; stroke-width: 0.8"/>
     </g>
     <g id="line2d_120">
      <g>
       <use xlink:href="#me989047f97" x="57.6" y="106.0992" style="stroke: #000000; stroke-width: 0.6"/>
      </g>
     </g>
    </g>
    <g id="ytick_30">
     <g id="line2d_121">
      <path d="M 57.6 90.8928 
L 414.72 90.8928 
" clip-path="url(#p31cbc5dc73)" style="fill: none; stroke-dasharray: 0.8,1.32; stroke-dashoffset: 0; stroke: #696969; stroke-width: 0.8"/>
     </g>
     <g id="line2d_122">
      <g>
       <use xlink:href="#me989047f97" x="57.6" y="90.8928" style="stroke: #000000; stroke-width: 0.6"/>
      </g>
     </g>
    </g>
    <g id="ytick_31">
     <g id="line2d_123">
      <path d="M 57.6 83.2896 
L 414.72 83.2896 
" clip-path="url(#p31cbc5dc73)" style="fill: none; stroke-dasharray: 0.8,1.32; stroke-dashoffset: 0; stroke: #696969; stroke-width: 0.8"/>
     </g>
     <g id="line2d_124">
      <g>
       <use xlink:href="#me989047f97" x="57.6" y="83.2896" style="stroke: #000000; stroke-width: 0.6"/>
      </g>
     </g>
    </g>
    <g id="ytick_32">
     <g id="line2d_125">
      <path d="M 57.6 75.6864 
L 414.72 75.6864 
" clip-path="url(#p31cbc5dc73)" style="fill: none; stroke-dasharray: 0.8,1.32; stroke-dashoffset: 0; stroke: #696969; stroke-width: 0.8"/>
     </g>
     <g id="line2d_126">
      <g>
       <use xlink:href="#me989047f97" x="57.6" y="75.6864" style="stroke: #000000; stroke-width: 0.6"/>
      </g>
     </g>
    </g>
    <g id="ytick_33">
     <g id="line2d_127">
      <path d="M 57.6 68.0832 
L 414.72 68.0832 
" clip-path="url(#p31cbc5dc73)" style="fill: none; stroke-dasharray: 0.8,1.32; stroke-dashoffset: 0; stroke: #696969; stroke-width: 0.8"/>
     </g>
     <g id="line2d_128">
      <g>
       <use xlink:href="#me989047f97" x="57.6" y="68.0832" style="stroke: #000000; stroke-width: 0.6"/>
      </g>
     </g>
    </g>
    <g id="ytick_34">
     <g id="line2d_129">
      <path d="M 57.6 52.8768 
L 414.72 52.8768 
" clip-path="url(#p31cbc5dc73)" style="fill: none; stroke-dasharray: 0.8,1.32; stroke-dashoffset: 0; stroke: #696969; stroke-width: 0.8"/>
     </g>
     <g id="line2d_130">
      <g>
       <use xlink:href="#me989047f97" x="57.6" y="52.8768" style="stroke: #000000; stroke-width: 0.6"/>
      </g>
     </g>
    </g>
    <g id="ytick_35">
     <g id="line2d_131">
      <path d="M 57.6 45.2736 
L 414.72 45.2736 
" clip-path="url(#p31cbc5dc73)" style="fill: none; stroke-dasharray: 0.8,1.32; stroke-dashoffset: 0; stroke: #696969; stroke-width: 0.8"/>
     </g>
     <g id="line2d_132">
      <g>
       <use xlink:href="#me989047f97" x="57.6" y="45.2736" style="stroke: #000000; stroke-width: 0.6"/>
      </g>
     </g>
    </g>
    <g id="text_16">
     <!-- Разница P [мм рт. ст.] -->
     <g transform="translate(29.362187 243.48675) rotate(-90) scale(0.12 -0.12)">
      <defs>
       <path id="DejaVuSans-420" d="M 1259 4147 
L 1259 2394 
L 2053 2394 
Q 2494 2394 2734 2622 
Q 2975 2850 2975 3272 
Q 2975 3691 2734 3919 
Q 2494 4147 2053 4147 
L 1259 4147 
z
M 628 4666 
L 2053 4666 
Q 2838 4666 3239 4311 
Q 3641 3956 3641 3272 
Q 3641 2581 3239 2228 
Q 2838 1875 2053 1875 
L 1259 1875 
L 1259 0 
L 628 0 
L 628 4666 
z
" transform="scale(0.015625)"/>
       <path id="DejaVuSans-430" d="M 2194 1759 
Q 1497 1759 1228 1600 
Q 959 1441 959 1056 
Q 959 750 1161 570 
Q 1363 391 1709 391 
Q 2188 391 2477 730 
Q 2766 1069 2766 1631 
L 2766 1759 
L 2194 1759 
z
M 3341 1997 
L 3341 0 
L 2766 0 
L 2766 531 
Q 2569 213 2275 61 
Q 1981 -91 1556 -91 
Q 1019 -91 701 211 
Q 384 513 384 1019 
Q 384 1609 779 1909 
Q 1175 2209 1959 2209 
L 2766 2209 
L 2766 2266 
Q 2766 2663 2505 2880 
Q 2244 3097 1772 3097 
Q 1472 3097 1187 3025 
Q 903 2953 641 2809 
L 641 3341 
Q 956 3463 1253 3523 
Q 1550 3584 1831 3584 
Q 2591 3584 2966 3190 
Q 3341 2797 3341 1997 
z
" transform="scale(0.015625)"/>
       <path id="DejaVuSans-437" d="M 2206 1888 
Q 2594 1813 2809 1584 
Q 3025 1356 3025 1019 
Q 3025 478 2622 193 
Q 2219 -91 1475 -91 
Q 1225 -91 961 -47 
Q 697 -3 416 84 
L 416 619 
Q 638 503 903 445 
Q 1169 388 1459 388 
Q 1931 388 2195 563 
Q 2459 738 2459 1019 
Q 2459 1294 2225 1461 
Q 1991 1628 1563 1628 
L 1100 1628 
L 1100 2103 
L 1584 2103 
Q 1947 2103 2158 2242 
Q 2369 2381 2369 2600 
Q 2369 2800 2151 2944 
Q 1934 3088 1563 3088 
Q 1341 3088 1089 3047 
Q 838 3006 534 2916 
L 534 3438 
Q 841 3513 1106 3550 
Q 1372 3588 1609 3588 
Q 2222 3588 2576 3342 
Q 2931 3097 2931 2656 
Q 2931 2366 2743 2164 
Q 2556 1963 2206 1888 
z
" transform="scale(0.015625)"/>
       <path id="DejaVuSans-43d" d="M 581 3500 
L 1159 3500 
L 1159 2072 
L 3025 2072 
L 3025 3500 
L 3603 3500 
L 3603 0 
L 3025 0 
L 3025 1613 
L 1159 1613 
L 1159 0 
L 581 0 
L 581 3500 
z
" transform="scale(0.015625)"/>
       <path id="DejaVuSans-438" d="M 3578 3500 
L 3578 0 
L 3006 0 
L 3006 2809 
L 1319 0 
L 581 0 
L 581 3500 
L 1153 3500 
L 1153 697 
L 2838 3500 
L 3578 3500 
z
" transform="scale(0.015625)"/>
       <path id="DejaVuSans-446" d="M 3603 0 
L 581 0 
L 581 3500 
L 1159 3500 
L 1159 459 
L 3025 459 
L 3025 3500 
L 3603 3500 
L 3603 459 
L 4063 459 
L 4063 -884 
L 3603 -884 
L 3603 0 
z
" transform="scale(0.015625)"/>
       <path id="DejaVuSans-50" d="M 1259 4147 
L 1259 2394 
L 2053 2394 
Q 2494 2394 2734 2622 
Q 2975 2850 2975 3272 
Q 2975 3691 2734 3919 
Q 2494 4147 2053 4147 
L 1259 4147 
z
M 628 4666 
L 2053 4666 
Q 2838 4666 3239 4311 
Q 3641 3956 3641 3272 
Q 3641 2581 3239 2228 
Q 2838 1875 2053 1875 
L 1259 1875 
L 1259 0 
L 628 0 
L 628 4666 
z
" transform="scale(0.015625)"/>
       <path id="DejaVuSans-442" d="M 188 3500 
L 3541 3500 
L 3541 3041 
L 2147 3041 
L 2147 0 
L 1581 0 
L 1581 3041 
L 188 3041 
L 188 3500 
z
" transform="scale(0.015625)"/>
       <path id="DejaVuSans-2e" d="M 684 794 
L 1344 794 
L 1344 0 
L 684 0 
L 684 794 
z
" transform="scale(0.015625)"/>
      </defs>
      <use xlink:href="#DejaVuSans-420"/>
      <use xlink:href="#DejaVuSans-430" x="60.302734"/>
      <use xlink:href="#DejaVuSans-437" x="121.582031"/>
      <use xlink:href="#DejaVuSans-43d" x="174.755859"/>
      <use xlink:href="#DejaVuSans-438" x="240.136719"/>
      <use xlink:href="#DejaVuSans-446" x="305.126953"/>
      <use xlink:href="#DejaVuSans-430" x="373.193359"/>
      <use xlink:href="#DejaVuSans-20" x="434.472656"/>
      <use xlink:href="#DejaVuSans-50" x="466.259766"/>
      <use xlink:href="#DejaVuSans-20" x="526.5625"/>
      <use xlink:href="#DejaVuSans-5b" x="558.349609"/>
      <use xlink:href="#DejaVuSans-43c" x="597.363281"/>
      <use xlink:href="#DejaVuSans-43c" x="672.802734"/>
      <use xlink:href="#DejaVuSans-20" x="748.242188"/>
      <use xlink:href="#DejaVuSans-440" x="780.029297"/>
      <use xlink:href="#DejaVuSans-442" x="843.505859"/>
      <use xlink:href="#DejaVuSans-2e" x="901.757812"/>
      <use xlink:href="#DejaVuSans-20" x="933.544922"/>
      <use xlink:href="#DejaVuSans-441" x="965.332031"/>
      <use xlink:href="#DejaVuSans-442" x="1020.3125"/>
      <use xlink:href="#DejaVuSans-2e" x="1078.564453"/>
      <use xlink:href="#DejaVuSans-5d" x="1110.351562"/>
     </g>
    </g>
   </g>
   <g id="line2d_133">
    <path d="M 57.6 326.692324 
L 57.993521 277.038579 
L 58.387042 297.262021 
L 58.780563 286.543906 
L 59.174084 264.272085 
L 60.354648 221.194439 
L 60.748169 179.848113 
L 61.14169 181.233383 
L 61.535211 186.573623 
L 61.928732 160.96984 
L 62.322253 147.07568 
L 62.715774 137.135577 
L 63.109295 119.516331 
L 63.502816 78.707112 
L 64.289859 98.133361 
L 64.68338 111.836645 
L 65.076901 110.104021 
L 65.470422 120.078616 
L 65.863943 126.249604 
L 66.257464 89.84037 
L 66.650985 103.913785 
L 67.044506 141.326133 
L 67.438027 140.035007 
L 67.831548 142.694067 
L 68.22507 176.446445 
L 69.012112 127.837863 
L 69.405633 123.028964 
L 69.799154 160.94512 
L 70.192675 175.6663 
L 70.979717 166.543639 
L 71.373238 177.597915 
L 71.766759 184.844233 
L 72.160281 114.6073 
L 72.553802 168.523698 
L 72.947323 183.732602 
L 73.340844 175.744258 
L 73.734365 183.334705 
L 74.127886 187.115506 
L 74.521407 183.208748 
L 74.914928 171.614155 
L 75.308449 148.453817 
L 75.70197 168.014306 
L 76.095491 195.396659 
L 76.489013 199.579546 
L 76.882534 192.195589 
L 77.276055 196.510307 
L 77.669576 193.135268 
L 78.063097 158.804408 
L 78.456618 182.702994 
L 78.850139 195.03338 
L 79.24366 195.795296 
L 79.637181 192.743739 
L 80.424223 194.587298 
L 80.817745 149.072666 
L 81.998308 199.032619 
L 82.391829 192.545105 
L 82.78535 189.997266 
L 83.178871 183.633578 
L 83.572392 181.209045 
L 83.965913 132.314191 
L 84.359434 172.665878 
L 84.752956 201.445416 
L 85.146477 191.509125 
L 85.539998 197.143595 
L 85.933519 206.715677 
L 86.32704 208.592218 
L 86.720561 132.97559 
L 87.507603 210.700023 
L 87.901124 216.690564 
L 88.688166 205.580993 
L 89.081688 211.746175 
L 89.475209 202.458544 
L 89.86873 131.18627 
L 90.262251 180.177809 
L 90.655772 198.205268 
L 91.049293 193.023664 
L 91.442814 191.776179 
L 91.836335 202.217831 
L 92.229856 201.082586 
L 92.623377 196.125467 
L 93.016899 140.814646 
L 93.41042 143.72358 
L 93.803941 177.708605 
L 94.197462 200.115529 
L 94.590983 187.678322 
L 94.984504 186.928331 
L 95.378025 190.110054 
L 95.771546 181.712728 
L 96.165067 126.837429 
L 96.558588 153.445778 
L 96.952109 172.352005 
L 97.345631 179.678245 
L 97.739152 190.934794 
L 98.132673 178.977997 
L 98.526194 198.094469 
L 98.919715 151.343182 
L 99.313236 127.909441 
L 99.706757 189.83513 
L 100.88732 108.362468 
L 101.280842 116.205139 
L 101.674363 81.444253 
L 102.067884 35.100639 
L 102.461405 97.380667 
L 102.854926 136.444625 
L 103.248447 148.41466 
L 103.641968 152.67871 
L 104.035489 168.624715 
L 104.42901 172.986662 
L 104.822531 103.72222 
L 105.216052 123.691715 
L 105.609574 178.608082 
L 106.003095 194.796094 
L 106.396616 180.0108 
L 107.183658 189.35892 
L 107.577179 166.960321 
L 107.9707 129.098085 
L 108.364221 188.223327 
L 108.757742 196.985821 
L 109.151263 194.161674 
L 109.544785 183.628308 
L 109.938306 192.528936 
L 110.331827 185.964663 
L 110.725348 121.281326 
L 111.51239 193.686938 
L 111.905911 195.058353 
L 112.299432 192.596725 
L 112.692953 197.934747 
L 113.086474 195.561686 
L 113.479995 111.80233 
L 114.267038 169.317395 
L 114.660559 182.629556 
L 115.05408 176.596726 
L 115.447601 178.36213 
L 115.841122 164.659776 
L 116.234643 81.202618 
L 117.021685 178.094198 
L 117.415206 180.071472 
L 118.202249 203.539332 
L 118.59577 213.396633 
L 118.989291 114.721437 
L 119.382812 147.926734 
L 119.776333 196.683372 
L 120.169854 195.071416 
L 120.563375 189.622257 
L 120.956896 203.601497 
L 121.350417 205.98789 
L 121.743938 146.372031 
L 122.13746 113.939268 
L 122.530981 166.853891 
L 122.924502 192.664386 
L 123.318023 175.860039 
L 123.711544 174.605143 
L 124.105065 185.021881 
L 124.498586 176.089013 
L 124.892107 124.540562 
L 125.285628 100.173721 
L 125.679149 161.152787 
L 126.07267 187.270987 
L 126.466192 225.059723 
L 126.859713 224.109598 
L 127.253234 219.319121 
L 127.646755 171.911792 
L 128.040276 147.807175 
L 128.433797 205.169574 
L 128.827318 223.792219 
L 129.220839 219.18546 
L 130.007881 244.979093 
L 130.794924 154.587216 
L 131.581966 238.830837 
L 131.975487 261.617327 
L 132.369008 265.050655 
L 132.762529 256.885913 
L 133.15605 221.612404 
L 133.549571 155.352324 
L 133.943092 170.556834 
L 134.336613 201.30602 
L 134.730135 220.45629 
L 135.123656 224.129846 
L 135.517177 220.081785 
L 135.910698 223.822469 
L 136.69774 126.707553 
L 137.091261 161.568744 
L 137.484782 177.074599 
L 137.878303 161.592057 
L 138.271824 161.652541 
L 138.665346 165.622993 
L 139.058867 165.747988 
L 139.452388 103.862885 
L 139.845909 92.418853 
L 140.23943 131.415732 
L 140.632951 147.178356 
L 141.026472 147.46183 
L 141.419993 140.021262 
L 141.813514 151.999918 
L 142.207035 140.743691 
L 142.600556 82.986632 
L 142.994078 110.568076 
L 143.387599 149.812858 
L 143.78112 154.189242 
L 144.174641 143.085234 
L 144.568162 143.644106 
L 144.961683 151.988074 
L 145.355204 90.564346 
L 145.748725 91.21226 
L 146.142246 142.298769 
L 146.535767 170.148715 
L 146.929289 178.639583 
L 147.716331 187.952702 
L 148.109852 130.610179 
L 148.503373 127.582994 
L 149.290415 191.410888 
L 150.470978 194.299604 
L 150.864499 137.153466 
L 151.258021 107.178231 
L 152.045063 183.026753 
L 152.438584 195.78706 
L 152.832105 193.063753 
L 153.619147 195.452591 
L 154.012668 115.256553 
L 154.406189 124.27241 
L 154.79971 160.457913 
L 155.193232 173.403709 
L 155.586753 178.62019 
L 155.980274 176.107219 
L 156.373795 189.130453 
L 156.767316 120.748958 
L 157.160837 122.190247 
L 157.554358 170.188396 
L 157.947879 198.823526 
L 158.3414 196.46261 
L 158.734921 182.493675 
L 159.128442 176.30475 
L 159.521964 166.262809 
L 159.915485 129.101928 
L 160.702527 194.447856 
L 161.096048 203.891238 
L 161.489569 209.480957 
L 161.88309 211.216886 
L 162.276611 209.098898 
L 162.670132 125.574226 
L 163.063653 135.136185 
L 163.457174 175.742536 
L 163.850696 200.861571 
L 164.244217 198.860271 
L 165.031259 187.171173 
L 165.42478 127.073915 
L 165.818301 113.530836 
L 166.605343 187.330411 
L 166.998864 193.242552 
L 167.392385 203.054436 
L 167.785907 201.255417 
L 168.179428 183.967744 
L 168.572949 139.558401 
L 168.96647 164.968072 
L 169.359991 205.90979 
L 169.753512 211.974222 
L 170.147033 198.67178 
L 170.540554 216.411565 
L 170.934075 214.784244 
L 171.327596 151.135751 
L 171.721117 161.183091 
L 172.114639 198.394567 
L 172.50816 212.360849 
L 172.901681 218.592351 
L 173.295202 213.211331 
L 173.688723 219.483467 
L 174.082244 159.856009 
L 174.475765 158.41307 
L 174.869286 184.133482 
L 175.262807 221.50661 
L 175.656328 212.367862 
L 176.443371 217.41485 
L 176.836892 161.802994 
L 177.230413 148.864367 
L 177.623934 166.965965 
L 178.017455 200.597154 
L 179.198018 220.173772 
L 179.98506 136.377438 
L 180.772103 192.249597 
L 181.165624 206.64136 
L 181.559145 213.295986 
L 181.952666 223.84627 
L 182.346187 199.515791 
L 182.739708 151.937343 
L 183.133229 162.5411 
L 183.52675 188.67301 
L 183.920271 207.06718 
L 184.313793 213.845881 
L 184.707314 224.519542 
L 185.100835 219.699906 
L 185.494356 148.977658 
L 185.887877 155.825087 
L 186.674919 200.591724 
L 187.461961 214.4043 
L 187.855482 229.090737 
L 188.249003 193.384424 
L 188.642525 142.183953 
L 189.036046 153.041873 
L 189.429567 183.304138 
L 189.823088 198.071968 
L 190.216609 205.100535 
L 190.61013 216.022645 
L 191.003651 219.205309 
L 191.397172 156.483958 
L 191.790693 148.065093 
L 192.184214 166.805202 
L 192.577736 201.071298 
L 192.971257 200.454077 
L 193.364778 203.729772 
L 193.758299 218.653558 
L 194.15182 202.571395 
L 194.545341 147.727933 
L 195.332383 181.558111 
L 195.725904 200.434203 
L 196.512946 207.209279 
L 196.906468 214.496254 
L 197.299989 140.367382 
L 197.69351 136.050226 
L 198.480552 185.623088 
L 198.874073 196.858988 
L 199.267594 196.476004 
L 199.661115 215.49511 
L 200.054636 156.975425 
L 200.448157 129.490565 
L 200.841679 148.550979 
L 201.2352 179.257897 
L 201.628721 190.590186 
L 202.022242 194.180661 
L 202.415763 209.417406 
L 202.809284 216.912181 
L 203.202805 146.867533 
L 203.596326 135.000506 
L 204.383368 192.735836 
L 204.776889 200.295929 
L 205.563932 223.209811 
L 205.957453 157.133177 
L 206.350974 141.478371 
L 206.744495 156.857158 
L 207.138016 187.758936 
L 207.531537 203.162577 
L 207.925058 210.823272 
L 208.318579 222.373845 
L 208.7121 168.016846 
L 209.105621 144.693006 
L 209.499143 156.279884 
L 209.892664 187.266882 
L 210.286185 194.999978 
L 210.679706 206.622525 
L 211.073227 214.37919 
L 211.860269 140.741958 
L 212.25379 152.411091 
L 212.647311 167.969331 
L 213.040832 175.783714 
L 213.434354 187.48707 
L 213.827875 168.180643 
L 214.221396 191.539374 
L 214.614917 121.846078 
L 215.008438 114.205969 
L 215.79548 164.878456 
L 216.582522 188.451037 
L 216.976043 204.131118 
L 217.369564 157.779774 
L 217.763086 126.949582 
L 218.156607 138.783904 
L 218.550128 170.016884 
L 218.943649 189.627404 
L 219.33717 193.737772 
L 219.730691 205.613716 
L 220.124212 205.867017 
L 220.517733 147.966029 
L 220.911254 136.606756 
L 222.091818 191.774661 
L 222.485339 203.721107 
L 222.87886 207.922124 
L 223.272381 219.888181 
L 223.665902 173.699476 
L 224.059423 143.03096 
L 224.452944 151.148367 
L 225.239986 206.188083 
L 225.633507 214.33396 
L 226.027029 218.611583 
L 226.42055 226.77616 
L 226.814071 180.663156 
L 227.207592 153.947524 
L 227.601113 166.01737 
L 228.388155 213.45011 
L 228.781676 213.914209 
L 229.175197 222.142514 
L 229.568718 199.358653 
L 229.96224 149.440206 
L 230.355761 157.695023 
L 231.142803 209.129494 
L 231.536324 221.287989 
L 231.929845 225.699799 
L 232.323366 214.609609 
L 232.716887 153.118682 
L 233.110408 153.678295 
L 233.503929 169.756815 
L 233.89745 197.47656 
L 234.290972 205.816426 
L 234.684493 206.409259 
L 235.078014 214.765539 
L 235.471535 157.210209 
L 235.865056 150.072183 
L 236.652098 193.984682 
L 237.43914 203.030276 
L 237.832661 199.80961 
L 238.226183 184.963855 
L 238.619704 135.227173 
L 239.013225 147.540319 
L 239.406746 167.616398 
L 239.800267 176.067207 
L 240.587309 185.23626 
L 240.98083 178.199151 
L 241.374351 132.393171 
L 241.767872 137.003814 
L 242.161393 164.887611 
L 242.554915 181.145831 
L 242.948436 185.778433 
L 243.735478 187.310037 
L 244.52252 119.072871 
L 244.916041 131.496496 
L 245.703083 160.242423 
L 246.096604 168.809379 
L 246.490125 165.750347 
L 246.883647 170.453447 
L 247.277168 120.876526 
L 247.670689 102.327451 
L 248.06421 114.806182 
L 248.457731 135.046889 
L 248.851252 143.661372 
L 249.244773 148.404859 
L 249.638294 164.787838 
L 250.031815 119.135266 
L 250.425336 88.999743 
L 250.818858 93.769393 
L 251.6059 130.471427 
L 251.999421 127.505049 
L 252.786463 156.489963 
L 253.179984 83.74512 
L 253.573505 80.803886 
L 253.967026 89.501746 
L 254.754068 99.160656 
L 255.541111 132.109734 
L 255.934632 140.838066 
L 256.328153 141.817126 
L 256.721674 80.760034 
L 257.115195 81.75098 
L 257.508716 102.135979 
L 257.902237 114.771575 
L 258.689279 132.304957 
L 259.082801 137.202679 
L 259.476322 157.616661 
L 259.869843 100.483705 
L 260.263364 89.888002 
L 260.656885 102.563731 
L 261.050406 123.000332 
L 262.230969 149.444794 
L 262.62449 154.392998 
L 263.018011 108.937444 
L 263.411533 90.630742 
L 264.198575 116.07562 
L 264.592096 124.928454 
L 264.985617 129.908969 
L 265.379138 131.017136 
L 265.772659 143.763456 
L 266.16618 144.882109 
L 266.559701 87.841483 
L 266.953222 88.970511 
L 267.740265 118.387401 
L 268.133786 115.654154 
L 268.527307 128.436501 
L 268.920828 148.979151 
L 269.314349 154.016286 
L 269.70787 162.93604 
L 270.101391 98.185746 
L 270.494912 99.360132 
L 271.281954 144.37756 
L 271.675476 145.566599 
L 272.856039 184.061315 
L 273.643081 116.685137 
L 274.430123 161.779138 
L 274.823644 166.883805 
L 275.217165 175.870746 
L 276.004208 201.613726 
L 276.397729 206.736823 
L 276.79125 188.598679 
L 277.184771 154.954534 
L 277.578292 156.213583 
L 278.365334 205.276693 
L 278.758855 210.426758 
L 279.152376 219.458873 
L 279.939419 229.781008 
L 280.33294 188.417033 
L 280.726461 178.078447 
L 281.513503 219.456303 
L 282.300545 229.830188 
L 282.694066 238.901118 
L 283.087587 240.220995 
L 283.481108 187.258215 
L 283.87463 184.708821 
L 284.268151 197.674107 
L 284.661672 230.031686 
L 285.055193 243.005217 
L 285.448714 240.472314 
L 285.842235 245.69875 
L 286.629277 174.733499 
L 287.022798 179.972047 
L 287.80984 225.359814 
L 288.203362 230.610309 
L 288.596883 231.987118 
L 288.990404 241.12312 
L 289.777446 170.221302 
L 290.170967 179.368984 
L 290.564488 192.398156 
L 290.958009 213.186434 
L 291.745051 215.998126 
L 292.138572 232.920195 
L 292.532094 234.33551 
L 292.925615 173.712471 
L 293.319136 167.380021 
L 293.712657 184.317089 
L 294.106178 193.502602 
L 294.499699 206.56944 
L 295.286741 217.203603 
L 295.680262 226.403794 
L 296.073783 189.076031 
L 296.467305 163.384779 
L 296.860826 172.595814 
L 297.254347 197.320962 
L 297.647868 198.783888 
L 298.041389 204.128 
L 298.43491 213.353283 
L 298.828431 218.70446 
L 299.221952 204.670987 
L 299.615473 163.497585 
L 300.008994 172.736881 
L 300.402515 193.61254 
L 300.796037 202.858755 
L 301.189558 200.475513 
L 302.370121 228.244968 
L 302.763642 163.83323 
L 303.157163 157.589341 
L 303.550684 162.981704 
L 303.944205 180.010305 
L 304.337726 189.286972 
L 305.124769 192.339712 
L 305.51829 197.748655 
L 306.305332 131.023718 
L 306.698853 144.197716 
L 307.092374 153.497319 
L 307.485895 166.677781 
L 307.879416 168.228559 
L 308.272937 173.660169 
L 308.666458 194.605495 
L 309.05998 203.9211 
L 309.847022 141.131515 
L 310.240543 146.578941 
L 310.634064 171.417653 
L 311.027585 180.748952 
L 311.421106 182.32809 
L 312.208148 201.006153 
L 312.601669 202.594527 
L 312.995191 165.409636 
L 313.388712 155.371213 
L 313.782233 168.601614 
L 314.175754 189.5903 
L 314.569275 187.316204 
L 314.962796 196.678001 
L 315.356317 198.28752 
L 315.749838 215.410543 
L 316.53688 156.6023 
L 317.717444 184.740931 
L 318.110965 186.371042 
L 319.291528 214.544508 
L 319.685049 150.266399 
L 320.472091 145.802958 
L 320.865612 159.086019 
L 321.259134 164.616639 
L 321.652655 166.272438 
L 322.046176 175.686301 
L 322.439697 196.735851 
L 322.833218 175.134228 
L 323.226739 134.147214 
L 323.62026 147.449807 
L 324.013781 156.877516 
L 324.407302 170.185594 
L 324.800823 167.985872 
L 325.981387 207.93455 
L 326.374908 190.235105 
L 326.768429 145.394912 
L 327.16195 158.721865 
L 327.555471 168.17384 
L 327.948992 181.506092 
L 328.342513 187.085715 
L 328.736034 188.79033 
L 329.129555 202.130456 
L 329.523076 211.595553 
L 329.916598 166.776396 
L 330.310119 152.980878 
L 330.70364 162.453726 
L 331.097161 183.562033 
L 331.490682 193.039997 
L 332.277724 188.737752 
L 332.671245 209.85621 
L 333.064766 223.221917 
L 333.458287 162.915118 
L 333.851809 156.897659 
L 334.24533 170.270842 
L 334.638851 187.524128 
L 335.425893 198.772283 
L 335.819414 212.155291 
L 336.212935 221.663098 
L 336.999977 155.37806 
L 337.393498 161.015467 
L 338.180541 187.807966 
L 338.574062 193.452511 
L 338.967583 195.221783 
L 339.361104 212.503931 
L 339.754625 218.155521 
L 340.148146 181.155488 
L 340.541667 155.790667 
L 341.328709 174.865312 
L 341.72223 192.161333 
L 342.115752 190.071469 
L 342.902794 209.164317 
L 343.296315 214.836479 
L 343.689836 201.122715 
L 344.083357 160.267748 
L 344.476878 165.946578 
L 344.870399 179.382871 
L 345.26392 196.698987 
L 345.657441 198.506753 
L 346.444484 209.884044 
L 346.838005 223.331177 
L 347.625047 168.801567 
L 348.018568 174.499809 
L 348.412089 187.955416 
L 348.80561 209.168378 
L 349.199131 207.117627 
L 349.986173 218.532845 
L 350.379695 231.998791 
L 350.773216 183.424659 
L 351.166737 177.5065 
L 351.560258 187.10088 
L 351.953779 204.452522 
L 353.527863 227.347256 
L 354.314905 165.131298 
L 354.708427 174.741333 
L 355.101948 180.475639 
L 355.495469 190.089467 
L 355.88899 191.94991 
L 356.676032 203.431643 
L 357.069553 193.664748 
L 357.463074 149.000993 
L 357.856595 150.870637 
L 358.250116 160.497347 
L 359.037159 187.511387 
L 359.43068 185.51053 
L 359.824201 191.266686 
L 360.217722 193.146948 
L 360.611243 156.252613 
L 361.004764 146.503412 
L 361.398285 156.144067 
L 361.791806 169.664037 
L 362.185327 175.430412 
L 362.578848 177.32081 
L 362.97237 183.090482 
L 363.365891 177.228885 
L 363.759412 159.736005 
L 364.152933 134.48946 
L 364.546454 144.143188 
L 364.939975 161.55375 
L 365.333496 171.210604 
L 365.727017 169.236103 
L 366.514059 180.802194 
L 366.907581 182.70986 
L 367.301102 145.842687 
L 367.694623 139.998037 
L 368.088144 145.787734 
L 368.481665 159.334131 
L 368.875186 165.126684 
L 369.268707 163.165378 
L 369.662228 168.960725 
L 370.055749 178.635076 
L 370.44927 130.146306 
L 370.842791 128.19046 
L 371.236313 149.501731 
L 371.629834 159.181414 
L 372.023355 161.107125 
L 372.416876 155.278848 
L 372.810397 176.595254 
L 373.203918 174.647109 
L 373.597439 122.290973 
L 373.99096 124.222894 
L 374.778002 143.600816 
L 375.171523 141.658624 
L 375.565045 143.595201 
L 375.958566 153.288163 
L 376.352087 166.859859 
L 376.745608 114.512895 
L 377.139129 112.576214 
L 377.53265 122.273476 
L 377.926171 139.727031 
L 378.319692 137.793437 
L 378.713213 151.371363 
L 379.106734 157.194998 
L 379.893777 110.68063 
L 380.287298 116.507068 
L 380.680819 126.212034 
L 381.861382 143.699213 
L 382.254903 157.285196 
L 382.648424 139.850918 
L 383.041945 106.906888 
L 383.828988 126.328975 
L 384.222509 139.91873 
L 384.61603 137.998649 
L 385.009551 155.467399 
L 385.403072 161.303901 
L 385.796593 174.896295 
L 386.190114 130.324815 
L 386.583635 124.530238 
L 386.977156 142.002015 
L 387.370677 151.719068 
L 387.764199 157.559005 
L 388.15772 159.521804 
L 388.551241 169.240339 
L 388.944762 171.204057 
L 389.338283 161.535305 
L 389.731804 136.356427 
L 390.125325 146.076615 
L 390.518846 159.674789 
L 390.912367 169.395662 
L 391.305888 167.483945 
L 391.699409 177.205406 
L 392.092931 183.049493 
L 392.486452 173.383285 
L 392.879973 140.451493 
L 393.667015 171.529232 
L 394.060536 177.374233 
L 394.454057 179.341709 
L 394.847578 189.06453 
L 395.241099 194.909773 
L 395.63462 177.489253 
L 396.028142 148.435839 
L 396.421663 154.281088 
L 396.815184 164.003918 
L 397.208705 181.481934 
L 397.995747 185.416565 
L 398.389268 195.138917 
L 398.782789 177.717657 
L 399.17631 148.663283 
L 399.569831 154.507353 
L 400.356874 185.582803 
L 400.750395 183.670701 
L 401.143916 177.880607 
L 401.537437 203.111179 
L 401.930958 174.054484 
L 402.718 177.981827 
L 403.111521 191.577646 
L 403.505042 197.41766 
L 403.898563 199.379472 
L 404.292085 209.095946 
L 404.685606 214.934155 
L 405.079127 197.505908 
L 405.472648 160.688805 
L 406.25969 187.870815 
L 406.653211 197.583016 
L 407.833774 203.448746 
L 408.227295 209.279817 
L 408.620817 176.333611 
L 409.014338 166.652206 
L 409.407859 180.235568 
L 409.80138 189.940238 
L 410.981943 207.414648 
L 411.375464 209.359468 
L 411.768985 168.649101 
L 412.162506 170.591417 
L 412.949549 197.737884 
L 413.34307 191.920907 
L 414.130112 211.303724 
L 414.523633 197.727124 
L 414.523633 197.727124 
" clip-path="url(#p31cbc5dc73)" style="fill: none; stroke: #1f77b4; stroke-width: 1.5; stroke-linecap: square"/>
   </g>
   <g id="line2d_134">
    <path d="M 57.6 174.528 
L 414.523633 174.528 
L 414.523633 174.528 
" clip-path="url(#p31cbc5dc73)" style="fill: none; stroke: #ff7f0e; stroke-width: 1.5; stroke-linecap: square"/>
   </g>
   <g id="patch_3">
    <path d="M 57.6 307.584 
L 57.6 41.472 
" style="fill: none; stroke: #000000; stroke-width: 0.8; stroke-linejoin: miter; stroke-linecap: square"/>
   </g>
   <g id="patch_4">
    <path d="M 414.72 307.584 
L 414.72 41.472 
" style="fill: none; stroke: #000000; stroke-width: 0.8; stroke-linejoin: miter; stroke-linecap: square"/>
   </g>
   <g id="patch_5">
    <path d="M 57.6 307.584 
L 414.72 307.584 
" style="fill: none; stroke: #000000; stroke-width: 0.8; stroke-linejoin: miter; stroke-linecap: square"/>
   </g>
   <g id="patch_6">
    <path d="M 57.6 41.472 
L 414.72 41.472 
" style="fill: none; stroke: #000000; stroke-width: 0.8; stroke-linejoin: miter; stroke-linecap: square"/>
   </g>
   <g id="text_17">
    <!-- Пульс = 152 удара в минуту -->
    <g transform="translate(248.064 60.48) scale(0.1 -0.1)">
     <defs>
      <path id="DejaVuSans-41f" d="M 4184 4666 
L 4184 0 
L 3553 0 
L 3553 4134 
L 1259 4134 
L 1259 0 
L 628 0 
L 628 4666 
L 4184 4666 
z
" transform="scale(0.015625)"/>
      <path id="DejaVuSans-443" d="M 2059 -325 
Q 1816 -950 1584 -1140 
Q 1353 -1331 966 -1331 
L 506 -1331 
L 506 -850 
L 844 -850 
Q 1081 -850 1212 -737 
Q 1344 -625 1503 -206 
L 1606 56 
L 191 3500 
L 800 3500 
L 1894 763 
L 2988 3500 
L 3597 3500 
L 2059 -325 
z
" transform="scale(0.015625)"/>
      <path id="DejaVuSans-43b" d="M 238 0 
L 238 478 
Q 806 566 981 959 
Q 1194 1513 1194 2928 
L 1194 3500 
L 3559 3500 
L 3559 0 
L 2984 0 
L 2984 3041 
L 1769 3041 
L 1769 2694 
Q 1769 1344 1494 738 
Q 1200 91 238 0 
z
" transform="scale(0.015625)"/>
      <path id="DejaVuSans-44c" d="M 2781 1038 
Q 2781 1319 2576 1466 
Q 2372 1613 1978 1613 
L 1159 1613 
L 1159 459 
L 1978 459 
Q 2372 459 2576 607 
Q 2781 756 2781 1038 
z
M 581 3500 
L 1159 3500 
L 1159 2072 
L 2003 2072 
Q 2672 2072 3033 1817 
Q 3394 1563 3394 1038 
Q 3394 513 3033 256 
Q 2672 0 2003 0 
L 581 0 
L 581 3500 
z
" transform="scale(0.015625)"/>
      <path id="DejaVuSans-3d" d="M 678 2906 
L 4684 2906 
L 4684 2381 
L 678 2381 
L 678 2906 
z
M 678 1631 
L 4684 1631 
L 4684 1100 
L 678 1100 
L 678 1631 
z
" transform="scale(0.015625)"/>
      <path id="DejaVuSans-434" d="M 1384 459 
L 3053 459 
L 3053 3041 
L 1844 3041 
L 1844 2603 
Q 1844 1316 1475 628 
L 1384 459 
z
M 550 459 
Q 834 584 959 850 
Q 1266 1509 1266 2838 
L 1266 3500 
L 3631 3500 
L 3631 459 
L 4091 459 
L 4091 -884 
L 3631 -884 
L 3631 0 
L 794 0 
L 794 -884 
L 334 -884 
L 334 459 
L 550 459 
z
" transform="scale(0.015625)"/>
      <path id="DejaVuSans-432" d="M 1156 1613 
L 1156 459 
L 1975 459 
Q 2369 459 2575 607 
Q 2781 756 2781 1038 
Q 2781 1319 2575 1466 
Q 2369 1613 1975 1613 
L 1156 1613 
z
M 1156 3041 
L 1156 2072 
L 1913 2072 
Q 2238 2072 2444 2201 
Q 2650 2331 2650 2563 
Q 2650 2794 2444 2917 
Q 2238 3041 1913 3041 
L 1156 3041 
z
M 581 3500 
L 1950 3500 
Q 2566 3500 2897 3275 
Q 3228 3050 3228 2634 
Q 3228 2313 3059 2123 
Q 2891 1934 2559 1888 
Q 2956 1813 3175 1575 
Q 3394 1338 3394 981 
Q 3394 513 3033 256 
Q 2672 0 2003 0 
L 581 0 
L 581 3500 
z
" transform="scale(0.015625)"/>
     </defs>
     <use xlink:href="#DejaVuSans-41f"/>
     <use xlink:href="#DejaVuSans-443" x="75.195312"/>
     <use xlink:href="#DejaVuSans-43b" x="134.375"/>
     <use xlink:href="#DejaVuSans-44c" x="198.291016"/>
     <use xlink:href="#DejaVuSans-441" x="257.226562"/>
     <use xlink:href="#DejaVuSans-20" x="312.207031"/>
     <use xlink:href="#DejaVuSans-3d" x="343.994141"/>
     <use xlink:href="#DejaVuSans-20" x="427.783203"/>
     <use xlink:href="#DejaVuSans-31" x="459.570312"/>
     <use xlink:href="#DejaVuSans-35" x="523.193359"/>
     <use xlink:href="#DejaVuSans-32" x="586.816406"/>
     <use xlink:href="#DejaVuSans-20" x="650.439453"/>
     <use xlink:href="#DejaVuSans-443" x="682.226562"/>
     <use xlink:href="#DejaVuSans-434" x="741.40625"/>
     <use xlink:href="#DejaVuSans-430" x="810.546875"/>
     <use xlink:href="#DejaVuSans-440" x="871.826172"/>
     <use xlink:href="#DejaVuSans-430" x="935.302734"/>
     <use xlink:href="#DejaVuSans-20" x="996.582031"/>
     <use xlink:href="#DejaVuSans-432" x="1028.369141"/>
     <use xlink:href="#DejaVuSans-20" x="1087.304688"/>
     <use xlink:href="#DejaVuSans-43c" x="1119.091797"/>
     <use xlink:href="#DejaVuSans-438" x="1194.53125"/>
     <use xlink:href="#DejaVuSans-43d" x="1259.521484"/>
     <use xlink:href="#DejaVuSans-443" x="1324.902344"/>
     <use xlink:href="#DejaVuSans-442" x="1384.082031"/>
     <use xlink:href="#DejaVuSans-443" x="1442.333984"/>
    </g>
   </g>
   <g id="text_18">
    <!-- Пульс после нагрузки -->
    <g transform="translate(148.917422 35.472) scale(0.15 -0.15)">
     <defs>
      <path id="DejaVuSans-43f" d="M 3603 3500 
L 3603 0 
L 3025 0 
L 3025 3041 
L 1159 3041 
L 1159 0 
L 581 0 
L 581 3500 
L 3603 3500 
z
" transform="scale(0.015625)"/>
      <path id="DejaVuSans-43e" d="M 1959 3097 
Q 1497 3097 1228 2736 
Q 959 2375 959 1747 
Q 959 1119 1226 758 
Q 1494 397 1959 397 
Q 2419 397 2687 759 
Q 2956 1122 2956 1747 
Q 2956 2369 2687 2733 
Q 2419 3097 1959 3097 
z
M 1959 3584 
Q 2709 3584 3137 3096 
Q 3566 2609 3566 1747 
Q 3566 888 3137 398 
Q 2709 -91 1959 -91 
Q 1206 -91 779 398 
Q 353 888 353 1747 
Q 353 2609 779 3096 
Q 1206 3584 1959 3584 
z
" transform="scale(0.015625)"/>
      <path id="DejaVuSans-433" d="M 581 0 
L 581 3500 
L 3050 3500 
L 3050 3041 
L 1159 3041 
L 1159 0 
L 581 0 
z
" transform="scale(0.015625)"/>
      <path id="DejaVuSans-43a" d="M 581 3500 
L 1153 3500 
L 1153 1856 
L 2775 3500 
L 3481 3500 
L 2144 2147 
L 3653 0 
L 3009 0 
L 1769 1766 
L 1153 1141 
L 1153 0 
L 581 0 
L 581 3500 
z
" transform="scale(0.015625)"/>
     </defs>
     <use xlink:href="#DejaVuSans-41f"/>
     <use xlink:href="#DejaVuSans-443" x="75.195312"/>
     <use xlink:href="#DejaVuSans-43b" x="134.375"/>
     <use xlink:href="#DejaVuSans-44c" x="198.291016"/>
     <use xlink:href="#DejaVuSans-441" x="257.226562"/>
     <use xlink:href="#DejaVuSans-20" x="312.207031"/>
     <use xlink:href="#DejaVuSans-43f" x="343.994141"/>
     <use xlink:href="#DejaVuSans-43e" x="409.375"/>
     <use xlink:href="#DejaVuSans-441" x="470.556641"/>
     <use xlink:href="#DejaVuSans-43b" x="525.537109"/>
     <use xlink:href="#DejaVuSans-435" x="589.453125"/>
     <use xlink:href="#DejaVuSans-20" x="650.976562"/>
     <use xlink:href="#DejaVuSans-43d" x="682.763672"/>
     <use xlink:href="#DejaVuSans-430" x="748.144531"/>
     <use xlink:href="#DejaVuSans-433" x="809.423828"/>
     <use xlink:href="#DejaVuSans-440" x="861.962891"/>
     <use xlink:href="#DejaVuSans-443" x="925.439453"/>
     <use xlink:href="#DejaVuSans-437" x="984.619141"/>
     <use xlink:href="#DejaVuSans-43a" x="1037.792969"/>
     <use xlink:href="#DejaVuSans-438" x="1098.193359"/>
    </g>
   </g>
  </g>
 </g>
 <defs>
  <clipPath id="p31cbc5dc73">
   <rect x="57.6" y="41.472" width="357.12" height="266.112"/>
  </clipPath>
 </defs>
</svg>
